M48
; DRILL file {KiCad (6.0.8)} date Tue Dec 27 12:07:22 2022
; FORMAT={-:-/ absolute / metric / decimal}
; #@! TF.CreationDate,2022-12-27T12:07:22-05:00
; #@! TF.GenerationSoftware,Kicad,Pcbnew,(6.0.8)
; #@! TF.FileFunction,Plated,1,2,PTH
FMAT,2
METRIC
; #@! TA.AperFunction,Plated,PTH,ViaDrill
T1C0.400
; #@! TA.AperFunction,Plated,PTH,ComponentDrill
T2C0.600
; #@! TA.AperFunction,Plated,PTH,ViaDrill
T3C2.000
%
G90
G05
T1
X65.929Y-104.361
X66.25Y-77.33
X68.05Y-119.55
X69.03Y-82.38
X70.364Y-109.45
X70.82Y-111.06
X71.262Y-94.252
X71.98Y-88.925
X72.206Y-87.715
X72.95Y-118.22
X72.951Y-86.958
X73.104Y-114.658
X73.25Y-119.87
X73.856Y-98.053
X73.886Y-90.786
X73.97Y-86.872
X74.329Y-89.806
X74.46Y-120.22
X76.375Y-105.193
X76.508Y-104.022
X76.561Y-118.844
X77.666Y-92.923
X78.12Y-95.197
X78.926Y-119.18
X79.246Y-95.603
X80.25Y-91.9
X80.85Y-87.35
X80.949Y-101.62
X81.55Y-90.2
X81.65Y-85.05
X81.65Y-93.2
X82.001Y-86.35
X82.528Y-110.45
X85.19Y-84.28
X86.285Y-80.115
X86.34Y-117.34
X87.05Y-107.9
X88.565Y-80.635
X89.671Y-107.248
X91.06Y-109.682
X91.15Y-101.85
X91.24Y-80.635
X91.5Y-105.7
X91.55Y-97.75
X93.2Y-98.05
X93.245Y-90.445
X93.4Y-102.0
X94.5Y-99.0
X94.65Y-103.85
X95.85Y-119.2
X95.95Y-104.45
X96.2Y-93.4
X97.355Y-120.034
X97.6Y-110.8
X98.05Y-93.05
X98.2Y-119.5
X98.45Y-106.4
X98.55Y-109.75
X99.25Y-115.65
X99.75Y-112.75
X100.25Y-109.45
X101.575Y-110.625
X101.815Y-94.216
X101.95Y-106.4
X102.571Y-96.331
X103.1Y-101.35
X103.416Y-95.005
X103.53Y-96.817
X104.45Y-100.3
X104.875Y-103.225
X105.25Y-101.3
X106.215Y-96.803
X106.263Y-114.152
X107.05Y-115.525
X111.25Y-103.95
X112.6Y-91.125
X113.21Y-80.635
X113.9Y-117.075
T2
X66.906Y-122.509
X68.656Y-122.509
X70.156Y-122.509
X71.656Y-122.509
X73.156Y-122.509
X74.656Y-122.509
X76.156Y-122.509
X77.656Y-122.509
X79.156Y-122.509
X80.656Y-122.509
X82.156Y-122.509
X83.656Y-122.509
X85.156Y-122.509
X86.656Y-122.509
X88.156Y-122.509
X89.656Y-122.509
X91.156Y-122.509
X92.656Y-122.509
X94.156Y-122.509
X95.656Y-122.509
X97.156Y-122.509
X98.656Y-122.509
X100.156Y-122.509
X101.656Y-122.509
X103.156Y-122.509
X104.656Y-122.509
X106.156Y-122.509
X107.656Y-122.509
X109.156Y-122.509
X110.656Y-122.509
X112.156Y-122.509
X113.906Y-122.509
T3
X113.25Y-119.375
T0
M30
