%TF.GenerationSoftware,KiCad,Pcbnew,(6.0.8)*%
%TF.CreationDate,2022-12-25T17:24:43-05:00*%
%TF.ProjectId,mbc30flash,6d626333-3066-46c6-9173-682e6b696361,rev?*%
%TF.SameCoordinates,Original*%
%TF.FileFunction,Drillmap*%
%TF.FilePolarity,Positive*%
%FSLAX45Y45*%
G04 Gerber Fmt 4.5, Leading zero omitted, Abs format (unit mm)*
G04 Created by KiCad (PCBNEW (6.0.8)) date 2022-12-25 17:24:43*
%MOMM*%
%LPD*%
G01*
G04 APERTURE LIST*
%ADD10C,0.025400*%
%ADD11C,0.200000*%
G04 APERTURE END LIST*
D10*
X6790182Y-7560204D02*
X6790182Y-7770880D01*
X7412482Y-7560204D02*
X6790182Y-7560204D01*
X6490622Y-12140200D02*
X6560622Y-12140200D01*
X11590622Y-11170560D02*
X11590622Y-7250200D01*
X11185622Y-7250200D02*
X11185622Y-6980200D01*
X6490622Y-6980200D02*
X6490622Y-11170560D01*
X6714622Y-13000200D02*
X11377622Y-13000200D01*
X6560622Y-12140200D02*
X6560622Y-12844200D01*
X11520622Y-12140200D02*
X11590622Y-12140200D01*
X11520622Y-12836200D02*
X11520622Y-12140200D01*
X11185622Y-6980200D02*
X6490622Y-6980200D01*
X6560622Y-12844200D02*
G75*
G03*
X6714622Y-13000200I152498J-3470D01*
G01*
X11377622Y-13000204D02*
G75*
G03*
X11520622Y-12836200I-15092J157504D01*
G01*
X11590622Y-7250200D02*
X11185622Y-7250200D01*
X6790182Y-7770880D02*
X7412482Y-7770880D01*
X11590622Y-12140200D02*
X11590622Y-11170560D01*
X6490622Y-11170560D02*
X6490622Y-12140200D01*
D11*
X8724900Y-7375000D02*
G75*
G03*
X8724900Y-7375000I-150000J0D01*
G01*
D10*
X7412482Y-7560204D02*
X7412482Y-7770880D01*
D11*
X9165000Y-8950000D02*
G75*
G03*
X9165000Y-8950000I-110000J0D01*
G01*
X9420000Y-11450000D02*
G75*
G03*
X9420000Y-11450000I-365000J0D01*
G01*
X6746971Y-13311953D02*
X6746971Y-13111953D01*
X6794590Y-13111953D01*
X6823161Y-13121477D01*
X6842209Y-13140525D01*
X6851733Y-13159573D01*
X6861257Y-13197668D01*
X6861257Y-13226239D01*
X6851733Y-13264334D01*
X6842209Y-13283382D01*
X6823161Y-13302430D01*
X6794590Y-13311953D01*
X6746971Y-13311953D01*
X6946971Y-13311953D02*
X6946971Y-13178620D01*
X6946971Y-13216715D02*
X6956495Y-13197668D01*
X6966019Y-13188144D01*
X6985066Y-13178620D01*
X7004114Y-13178620D01*
X7070780Y-13311953D02*
X7070780Y-13178620D01*
X7070780Y-13111953D02*
X7061257Y-13121477D01*
X7070780Y-13131001D01*
X7080304Y-13121477D01*
X7070780Y-13111953D01*
X7070780Y-13131001D01*
X7194590Y-13311953D02*
X7175542Y-13302430D01*
X7166019Y-13283382D01*
X7166019Y-13111953D01*
X7299352Y-13311953D02*
X7280304Y-13302430D01*
X7270780Y-13283382D01*
X7270780Y-13111953D01*
X7527923Y-13311953D02*
X7527923Y-13111953D01*
X7594590Y-13254811D01*
X7661257Y-13111953D01*
X7661257Y-13311953D01*
X7842209Y-13311953D02*
X7842209Y-13207192D01*
X7832685Y-13188144D01*
X7813638Y-13178620D01*
X7775542Y-13178620D01*
X7756495Y-13188144D01*
X7842209Y-13302430D02*
X7823161Y-13311953D01*
X7775542Y-13311953D01*
X7756495Y-13302430D01*
X7746971Y-13283382D01*
X7746971Y-13264334D01*
X7756495Y-13245287D01*
X7775542Y-13235763D01*
X7823161Y-13235763D01*
X7842209Y-13226239D01*
X7937447Y-13178620D02*
X7937447Y-13378620D01*
X7937447Y-13188144D02*
X7956495Y-13178620D01*
X7994590Y-13178620D01*
X8013638Y-13188144D01*
X8023161Y-13197668D01*
X8032685Y-13216715D01*
X8032685Y-13273858D01*
X8023161Y-13292906D01*
X8013638Y-13302430D01*
X7994590Y-13311953D01*
X7956495Y-13311953D01*
X7937447Y-13302430D01*
X8118400Y-13292906D02*
X8127923Y-13302430D01*
X8118400Y-13311953D01*
X8108876Y-13302430D01*
X8118400Y-13292906D01*
X8118400Y-13311953D01*
X8118400Y-13188144D02*
X8127923Y-13197668D01*
X8118400Y-13207192D01*
X8108876Y-13197668D01*
X8118400Y-13188144D01*
X8118400Y-13207192D01*
M02*
