G04 #@! TF.GenerationSoftware,KiCad,Pcbnew,(6.0.8)*
G04 #@! TF.CreationDate,2022-12-27T12:07:26-05:00*
G04 #@! TF.ProjectId,mbc30flash,6d626333-3066-46c6-9173-682e6b696361,rev?*
G04 #@! TF.SameCoordinates,Original*
G04 #@! TF.FileFunction,AssemblyDrawing,Top*
%FSLAX46Y46*%
G04 Gerber Fmt 4.6, Leading zero omitted, Abs format (unit mm)*
G04 Created by KiCad (PCBNEW (6.0.8)) date 2022-12-27 12:07:26*
%MOMM*%
%LPD*%
G01*
G04 APERTURE LIST*
%ADD10C,0.150000*%
%ADD11C,0.060000*%
%ADD12C,0.075000*%
%ADD13C,0.100000*%
%ADD14C,0.050000*%
G04 APERTURE END LIST*
D10*
X103810190Y-93686380D02*
X103905428Y-93686380D01*
X104000666Y-93734000D01*
X104048285Y-93781619D01*
X104095904Y-93876857D01*
X104143523Y-94067333D01*
X104143523Y-94305428D01*
X104095904Y-94495904D01*
X104048285Y-94591142D01*
X104000666Y-94638761D01*
X103905428Y-94686380D01*
X103810190Y-94686380D01*
X103714952Y-94638761D01*
X103667333Y-94591142D01*
X103619714Y-94495904D01*
X103572095Y-94305428D01*
X103572095Y-94067333D01*
X103619714Y-93876857D01*
X103667333Y-93781619D01*
X103714952Y-93734000D01*
X103810190Y-93686380D01*
X104572095Y-94591142D02*
X104619714Y-94638761D01*
X104572095Y-94686380D01*
X104524476Y-94638761D01*
X104572095Y-94591142D01*
X104572095Y-94686380D01*
X105572095Y-94686380D02*
X105000666Y-94686380D01*
X105286380Y-94686380D02*
X105286380Y-93686380D01*
X105191142Y-93829238D01*
X105095904Y-93924476D01*
X105000666Y-93972095D01*
X107191142Y-94019714D02*
X107191142Y-94686380D01*
X106762571Y-94019714D02*
X106762571Y-94543523D01*
X106810190Y-94638761D01*
X106905428Y-94686380D01*
X107048285Y-94686380D01*
X107143523Y-94638761D01*
X107191142Y-94591142D01*
X108000666Y-94162571D02*
X107667333Y-94162571D01*
X107667333Y-94686380D02*
X107667333Y-93686380D01*
X108143523Y-93686380D01*
D11*
X105767333Y-95806857D02*
X105748285Y-95825904D01*
X105691142Y-95844952D01*
X105653047Y-95844952D01*
X105595904Y-95825904D01*
X105557809Y-95787809D01*
X105538761Y-95749714D01*
X105519714Y-95673523D01*
X105519714Y-95616380D01*
X105538761Y-95540190D01*
X105557809Y-95502095D01*
X105595904Y-95464000D01*
X105653047Y-95444952D01*
X105691142Y-95444952D01*
X105748285Y-95464000D01*
X105767333Y-95483047D01*
X106148285Y-95844952D02*
X105919714Y-95844952D01*
X106034000Y-95844952D02*
X106034000Y-95444952D01*
X105995904Y-95502095D01*
X105957809Y-95540190D01*
X105919714Y-95559238D01*
D10*
X92422380Y-111361309D02*
X92422380Y-111266071D01*
X92470000Y-111170833D01*
X92517619Y-111123214D01*
X92612857Y-111075595D01*
X92803333Y-111027976D01*
X93041428Y-111027976D01*
X93231904Y-111075595D01*
X93327142Y-111123214D01*
X93374761Y-111170833D01*
X93422380Y-111266071D01*
X93422380Y-111361309D01*
X93374761Y-111456547D01*
X93327142Y-111504166D01*
X93231904Y-111551785D01*
X93041428Y-111599404D01*
X92803333Y-111599404D01*
X92612857Y-111551785D01*
X92517619Y-111504166D01*
X92470000Y-111456547D01*
X92422380Y-111361309D01*
X93327142Y-110599404D02*
X93374761Y-110551785D01*
X93422380Y-110599404D01*
X93374761Y-110647023D01*
X93327142Y-110599404D01*
X93422380Y-110599404D01*
X93422380Y-109599404D02*
X93422380Y-110170833D01*
X93422380Y-109885119D02*
X92422380Y-109885119D01*
X92565238Y-109980357D01*
X92660476Y-110075595D01*
X92708095Y-110170833D01*
X92755714Y-107980357D02*
X93422380Y-107980357D01*
X92755714Y-108408928D02*
X93279523Y-108408928D01*
X93374761Y-108361309D01*
X93422380Y-108266071D01*
X93422380Y-108123214D01*
X93374761Y-108027976D01*
X93327142Y-107980357D01*
X92898571Y-107170833D02*
X92898571Y-107504166D01*
X93422380Y-107504166D02*
X92422380Y-107504166D01*
X92422380Y-107027976D01*
D11*
X94542857Y-109404166D02*
X94561904Y-109423214D01*
X94580952Y-109480357D01*
X94580952Y-109518452D01*
X94561904Y-109575595D01*
X94523809Y-109613690D01*
X94485714Y-109632738D01*
X94409523Y-109651785D01*
X94352380Y-109651785D01*
X94276190Y-109632738D01*
X94238095Y-109613690D01*
X94200000Y-109575595D01*
X94180952Y-109518452D01*
X94180952Y-109480357D01*
X94200000Y-109423214D01*
X94219047Y-109404166D01*
X94219047Y-109251785D02*
X94200000Y-109232738D01*
X94180952Y-109194642D01*
X94180952Y-109099404D01*
X94200000Y-109061309D01*
X94219047Y-109042261D01*
X94257142Y-109023214D01*
X94295238Y-109023214D01*
X94352380Y-109042261D01*
X94580952Y-109270833D01*
X94580952Y-109023214D01*
D10*
X75748880Y-81975480D02*
X75748880Y-82546909D01*
X75748880Y-82261195D02*
X74748880Y-82261195D01*
X74891738Y-82356433D01*
X74986976Y-82451671D01*
X75034595Y-82546909D01*
X74748880Y-81070719D02*
X74748880Y-81546909D01*
X75225071Y-81594528D01*
X75177452Y-81546909D01*
X75129833Y-81451671D01*
X75129833Y-81213576D01*
X75177452Y-81118338D01*
X75225071Y-81070719D01*
X75320309Y-81023100D01*
X75558404Y-81023100D01*
X75653642Y-81070719D01*
X75701261Y-81118338D01*
X75748880Y-81213576D01*
X75748880Y-81451671D01*
X75701261Y-81546909D01*
X75653642Y-81594528D01*
X75082214Y-79832623D02*
X76082214Y-79832623D01*
X75129833Y-79832623D02*
X75082214Y-79737385D01*
X75082214Y-79546909D01*
X75129833Y-79451671D01*
X75177452Y-79404052D01*
X75272690Y-79356433D01*
X75558404Y-79356433D01*
X75653642Y-79404052D01*
X75701261Y-79451671D01*
X75748880Y-79546909D01*
X75748880Y-79737385D01*
X75701261Y-79832623D01*
X75225071Y-78594528D02*
X75225071Y-78927861D01*
X75748880Y-78927861D02*
X74748880Y-78927861D01*
X74748880Y-78451671D01*
D11*
X76869357Y-80589766D02*
X76888404Y-80608814D01*
X76907452Y-80665957D01*
X76907452Y-80704052D01*
X76888404Y-80761195D01*
X76850309Y-80799290D01*
X76812214Y-80818338D01*
X76736023Y-80837385D01*
X76678880Y-80837385D01*
X76602690Y-80818338D01*
X76564595Y-80799290D01*
X76526500Y-80761195D01*
X76507452Y-80704052D01*
X76507452Y-80665957D01*
X76526500Y-80608814D01*
X76545547Y-80589766D01*
X76640785Y-80246909D02*
X76907452Y-80246909D01*
X76488404Y-80342147D02*
X76774119Y-80437385D01*
X76774119Y-80189766D01*
D10*
X80394580Y-81975480D02*
X80394580Y-82546909D01*
X80394580Y-82261195D02*
X79394580Y-82261195D01*
X79537438Y-82356433D01*
X79632676Y-82451671D01*
X79680295Y-82546909D01*
X79394580Y-81070719D02*
X79394580Y-81546909D01*
X79870771Y-81594528D01*
X79823152Y-81546909D01*
X79775533Y-81451671D01*
X79775533Y-81213576D01*
X79823152Y-81118338D01*
X79870771Y-81070719D01*
X79966009Y-81023100D01*
X80204104Y-81023100D01*
X80299342Y-81070719D01*
X80346961Y-81118338D01*
X80394580Y-81213576D01*
X80394580Y-81451671D01*
X80346961Y-81546909D01*
X80299342Y-81594528D01*
X79727914Y-79832623D02*
X80727914Y-79832623D01*
X79775533Y-79832623D02*
X79727914Y-79737385D01*
X79727914Y-79546909D01*
X79775533Y-79451671D01*
X79823152Y-79404052D01*
X79918390Y-79356433D01*
X80204104Y-79356433D01*
X80299342Y-79404052D01*
X80346961Y-79451671D01*
X80394580Y-79546909D01*
X80394580Y-79737385D01*
X80346961Y-79832623D01*
X79870771Y-78594528D02*
X79870771Y-78927861D01*
X80394580Y-78927861D02*
X79394580Y-78927861D01*
X79394580Y-78451671D01*
D11*
X78655057Y-80589766D02*
X78674104Y-80608814D01*
X78693152Y-80665957D01*
X78693152Y-80704052D01*
X78674104Y-80761195D01*
X78636009Y-80799290D01*
X78597914Y-80818338D01*
X78521723Y-80837385D01*
X78464580Y-80837385D01*
X78388390Y-80818338D01*
X78350295Y-80799290D01*
X78312200Y-80761195D01*
X78293152Y-80704052D01*
X78293152Y-80665957D01*
X78312200Y-80608814D01*
X78331247Y-80589766D01*
X78293152Y-80227861D02*
X78293152Y-80418338D01*
X78483628Y-80437385D01*
X78464580Y-80418338D01*
X78445533Y-80380242D01*
X78445533Y-80285004D01*
X78464580Y-80246909D01*
X78483628Y-80227861D01*
X78521723Y-80208814D01*
X78616961Y-80208814D01*
X78655057Y-80227861D01*
X78674104Y-80246909D01*
X78693152Y-80285004D01*
X78693152Y-80380242D01*
X78674104Y-80418338D01*
X78655057Y-80437385D01*
D10*
X87482380Y-93405409D02*
X87482380Y-93310171D01*
X87530000Y-93214933D01*
X87577619Y-93167314D01*
X87672857Y-93119695D01*
X87863333Y-93072076D01*
X88101428Y-93072076D01*
X88291904Y-93119695D01*
X88387142Y-93167314D01*
X88434761Y-93214933D01*
X88482380Y-93310171D01*
X88482380Y-93405409D01*
X88434761Y-93500647D01*
X88387142Y-93548266D01*
X88291904Y-93595885D01*
X88101428Y-93643504D01*
X87863333Y-93643504D01*
X87672857Y-93595885D01*
X87577619Y-93548266D01*
X87530000Y-93500647D01*
X87482380Y-93405409D01*
X88387142Y-92643504D02*
X88434761Y-92595885D01*
X88482380Y-92643504D01*
X88434761Y-92691123D01*
X88387142Y-92643504D01*
X88482380Y-92643504D01*
X88482380Y-91643504D02*
X88482380Y-92214933D01*
X88482380Y-91929219D02*
X87482380Y-91929219D01*
X87625238Y-92024457D01*
X87720476Y-92119695D01*
X87768095Y-92214933D01*
X87815714Y-90024457D02*
X88482380Y-90024457D01*
X87815714Y-90453028D02*
X88339523Y-90453028D01*
X88434761Y-90405409D01*
X88482380Y-90310171D01*
X88482380Y-90167314D01*
X88434761Y-90072076D01*
X88387142Y-90024457D01*
X87958571Y-89214933D02*
X87958571Y-89548266D01*
X88482380Y-89548266D02*
X87482380Y-89548266D01*
X87482380Y-89072076D01*
D11*
X86742857Y-91448266D02*
X86761904Y-91467314D01*
X86780952Y-91524457D01*
X86780952Y-91562552D01*
X86761904Y-91619695D01*
X86723809Y-91657790D01*
X86685714Y-91676838D01*
X86609523Y-91695885D01*
X86552380Y-91695885D01*
X86476190Y-91676838D01*
X86438095Y-91657790D01*
X86400000Y-91619695D01*
X86380952Y-91562552D01*
X86380952Y-91524457D01*
X86400000Y-91467314D01*
X86419047Y-91448266D01*
X86380952Y-91314933D02*
X86380952Y-91048266D01*
X86780952Y-91219695D01*
D10*
X88897023Y-105482380D02*
X88325595Y-105482380D01*
X88611309Y-105482380D02*
X88611309Y-104482380D01*
X88516071Y-104625238D01*
X88420833Y-104720476D01*
X88325595Y-104768095D01*
X89516071Y-104482380D02*
X89611309Y-104482380D01*
X89706547Y-104530000D01*
X89754166Y-104577619D01*
X89801785Y-104672857D01*
X89849404Y-104863333D01*
X89849404Y-105101428D01*
X89801785Y-105291904D01*
X89754166Y-105387142D01*
X89706547Y-105434761D01*
X89611309Y-105482380D01*
X89516071Y-105482380D01*
X89420833Y-105434761D01*
X89373214Y-105387142D01*
X89325595Y-105291904D01*
X89277976Y-105101428D01*
X89277976Y-104863333D01*
X89325595Y-104672857D01*
X89373214Y-104577619D01*
X89420833Y-104530000D01*
X89516071Y-104482380D01*
X90277976Y-105482380D02*
X90277976Y-104482380D01*
X90849404Y-105482380D02*
X90420833Y-104910952D01*
X90849404Y-104482380D02*
X90277976Y-105053809D01*
D11*
X89520833Y-103780952D02*
X89387500Y-103590476D01*
X89292261Y-103780952D02*
X89292261Y-103380952D01*
X89444642Y-103380952D01*
X89482738Y-103400000D01*
X89501785Y-103419047D01*
X89520833Y-103457142D01*
X89520833Y-103514285D01*
X89501785Y-103552380D01*
X89482738Y-103571428D01*
X89444642Y-103590476D01*
X89292261Y-103590476D01*
X89673214Y-103419047D02*
X89692261Y-103400000D01*
X89730357Y-103380952D01*
X89825595Y-103380952D01*
X89863690Y-103400000D01*
X89882738Y-103419047D01*
X89901785Y-103457142D01*
X89901785Y-103495238D01*
X89882738Y-103552380D01*
X89654166Y-103780952D01*
X89901785Y-103780952D01*
D10*
X87383514Y-84493380D02*
X86812085Y-84493380D01*
X87097800Y-84493380D02*
X87097800Y-83493380D01*
X87002561Y-83636238D01*
X86907323Y-83731476D01*
X86812085Y-83779095D01*
X87812085Y-84493380D02*
X87812085Y-83493380D01*
X88383514Y-84493380D02*
X87954942Y-83921952D01*
X88383514Y-83493380D02*
X87812085Y-84064809D01*
D11*
X87531133Y-85651952D02*
X87397800Y-85461476D01*
X87302561Y-85651952D02*
X87302561Y-85251952D01*
X87454942Y-85251952D01*
X87493038Y-85271000D01*
X87512085Y-85290047D01*
X87531133Y-85328142D01*
X87531133Y-85385285D01*
X87512085Y-85423380D01*
X87493038Y-85442428D01*
X87454942Y-85461476D01*
X87302561Y-85461476D01*
X87664466Y-85251952D02*
X87912085Y-85251952D01*
X87778752Y-85404333D01*
X87835895Y-85404333D01*
X87873990Y-85423380D01*
X87893038Y-85442428D01*
X87912085Y-85480523D01*
X87912085Y-85575761D01*
X87893038Y-85613857D01*
X87873990Y-85632904D01*
X87835895Y-85651952D01*
X87721609Y-85651952D01*
X87683514Y-85632904D01*
X87664466Y-85613857D01*
D10*
X101850206Y-117065238D02*
X101850206Y-116589047D01*
X102135920Y-117160476D02*
X101135920Y-116827142D01*
X102135920Y-116493809D01*
X102135920Y-116160476D02*
X101135920Y-116160476D01*
X101850206Y-115827142D01*
X101135920Y-115493809D01*
X102135920Y-115493809D01*
X101231159Y-115065238D02*
X101183540Y-115017619D01*
X101135920Y-114922380D01*
X101135920Y-114684285D01*
X101183540Y-114589047D01*
X101231159Y-114541428D01*
X101326397Y-114493809D01*
X101421635Y-114493809D01*
X101564492Y-114541428D01*
X102135920Y-115112857D01*
X102135920Y-114493809D01*
X102135920Y-114017619D02*
X102135920Y-113827142D01*
X102088301Y-113731904D01*
X102040682Y-113684285D01*
X101897825Y-113589047D01*
X101707349Y-113541428D01*
X101326397Y-113541428D01*
X101231159Y-113589047D01*
X101183540Y-113636666D01*
X101135920Y-113731904D01*
X101135920Y-113922380D01*
X101183540Y-114017619D01*
X101231159Y-114065238D01*
X101326397Y-114112857D01*
X101564492Y-114112857D01*
X101659730Y-114065238D01*
X101707349Y-114017619D01*
X101754968Y-113922380D01*
X101754968Y-113731904D01*
X101707349Y-113636666D01*
X101659730Y-113589047D01*
X101564492Y-113541428D01*
X101612111Y-112779523D02*
X101612111Y-113112857D01*
X102135920Y-113112857D02*
X101135920Y-113112857D01*
X101135920Y-112636666D01*
X101135920Y-112065238D02*
X101135920Y-111970000D01*
X101183540Y-111874761D01*
X101231159Y-111827142D01*
X101326397Y-111779523D01*
X101516873Y-111731904D01*
X101754968Y-111731904D01*
X101945444Y-111779523D01*
X102040682Y-111827142D01*
X102088301Y-111874761D01*
X102135920Y-111970000D01*
X102135920Y-112065238D01*
X102088301Y-112160476D01*
X102040682Y-112208095D01*
X101945444Y-112255714D01*
X101754968Y-112303333D01*
X101516873Y-112303333D01*
X101326397Y-112255714D01*
X101231159Y-112208095D01*
X101183540Y-112160476D01*
X101135920Y-112065238D01*
X101135920Y-111398571D02*
X101135920Y-110779523D01*
X101516873Y-111112857D01*
X101516873Y-110970000D01*
X101564492Y-110874761D01*
X101612111Y-110827142D01*
X101707349Y-110779523D01*
X101945444Y-110779523D01*
X102040682Y-110827142D01*
X102088301Y-110874761D01*
X102135920Y-110970000D01*
X102135920Y-111255714D01*
X102088301Y-111350952D01*
X102040682Y-111398571D01*
X101231159Y-110398571D02*
X101183540Y-110350952D01*
X101135920Y-110255714D01*
X101135920Y-110017619D01*
X101183540Y-109922380D01*
X101231159Y-109874761D01*
X101326397Y-109827142D01*
X101421635Y-109827142D01*
X101564492Y-109874761D01*
X102135920Y-110446190D01*
X102135920Y-109827142D01*
X101088301Y-108684285D02*
X102374016Y-109541428D01*
X102135920Y-108350952D02*
X101135920Y-108350952D01*
X101850206Y-108017619D01*
X101135920Y-107684285D01*
X102135920Y-107684285D01*
X101612111Y-106874761D02*
X101659730Y-106731904D01*
X101707349Y-106684285D01*
X101802587Y-106636666D01*
X101945444Y-106636666D01*
X102040682Y-106684285D01*
X102088301Y-106731904D01*
X102135920Y-106827142D01*
X102135920Y-107208095D01*
X101135920Y-107208095D01*
X101135920Y-106874761D01*
X101183540Y-106779523D01*
X101231159Y-106731904D01*
X101326397Y-106684285D01*
X101421635Y-106684285D01*
X101516873Y-106731904D01*
X101564492Y-106779523D01*
X101612111Y-106874761D01*
X101612111Y-107208095D01*
X102135920Y-106208095D02*
X101135920Y-106208095D01*
X101850206Y-105874761D01*
X101135920Y-105541428D01*
X102135920Y-105541428D01*
X101231159Y-105112857D02*
X101183540Y-105065238D01*
X101135920Y-104970000D01*
X101135920Y-104731904D01*
X101183540Y-104636666D01*
X101231159Y-104589047D01*
X101326397Y-104541428D01*
X101421635Y-104541428D01*
X101564492Y-104589047D01*
X102135920Y-105160476D01*
X102135920Y-104541428D01*
X102135920Y-104065238D02*
X102135920Y-103874761D01*
X102088301Y-103779523D01*
X102040682Y-103731904D01*
X101897825Y-103636666D01*
X101707349Y-103589047D01*
X101326397Y-103589047D01*
X101231159Y-103636666D01*
X101183540Y-103684285D01*
X101135920Y-103779523D01*
X101135920Y-103970000D01*
X101183540Y-104065238D01*
X101231159Y-104112857D01*
X101326397Y-104160476D01*
X101564492Y-104160476D01*
X101659730Y-104112857D01*
X101707349Y-104065238D01*
X101754968Y-103970000D01*
X101754968Y-103779523D01*
X101707349Y-103684285D01*
X101659730Y-103636666D01*
X101564492Y-103589047D01*
X101612111Y-102827142D02*
X101612111Y-103160476D01*
X102135920Y-103160476D02*
X101135920Y-103160476D01*
X101135920Y-102684285D01*
X101135920Y-102112857D02*
X101135920Y-102017619D01*
X101183540Y-101922380D01*
X101231159Y-101874761D01*
X101326397Y-101827142D01*
X101516873Y-101779523D01*
X101754968Y-101779523D01*
X101945444Y-101827142D01*
X102040682Y-101874761D01*
X102088301Y-101922380D01*
X102135920Y-102017619D01*
X102135920Y-102112857D01*
X102088301Y-102208095D01*
X102040682Y-102255714D01*
X101945444Y-102303333D01*
X101754968Y-102350952D01*
X101516873Y-102350952D01*
X101326397Y-102303333D01*
X101231159Y-102255714D01*
X101183540Y-102208095D01*
X101135920Y-102112857D01*
X101135920Y-101446190D02*
X101135920Y-100827142D01*
X101516873Y-101160476D01*
X101516873Y-101017619D01*
X101564492Y-100922380D01*
X101612111Y-100874761D01*
X101707349Y-100827142D01*
X101945444Y-100827142D01*
X102040682Y-100874761D01*
X102088301Y-100922380D01*
X102135920Y-101017619D01*
X102135920Y-101303333D01*
X102088301Y-101398571D01*
X102040682Y-101446190D01*
X101135920Y-100493809D02*
X101135920Y-99874761D01*
X101516873Y-100208095D01*
X101516873Y-100065238D01*
X101564492Y-99970000D01*
X101612111Y-99922380D01*
X101707349Y-99874761D01*
X101945444Y-99874761D01*
X102040682Y-99922380D01*
X102088301Y-99970000D01*
X102135920Y-100065238D01*
X102135920Y-100350952D01*
X102088301Y-100446190D01*
X102040682Y-100493809D01*
X102040682Y-98874761D02*
X102088301Y-98922380D01*
X102135920Y-99065238D01*
X102135920Y-99160476D01*
X102088301Y-99303333D01*
X101993063Y-99398571D01*
X101897825Y-99446190D01*
X101707349Y-99493809D01*
X101564492Y-99493809D01*
X101374016Y-99446190D01*
X101278778Y-99398571D01*
X101183540Y-99303333D01*
X101135920Y-99160476D01*
X101135920Y-99065238D01*
X101183540Y-98922380D01*
X101231159Y-98874761D01*
X81970342Y-78464514D02*
X82017961Y-78512133D01*
X82065580Y-78654990D01*
X82065580Y-78750228D01*
X82017961Y-78893085D01*
X81922723Y-78988323D01*
X81827485Y-79035942D01*
X81637009Y-79083561D01*
X81494152Y-79083561D01*
X81303676Y-79035942D01*
X81208438Y-78988323D01*
X81113200Y-78893085D01*
X81065580Y-78750228D01*
X81065580Y-78654990D01*
X81113200Y-78512133D01*
X81160819Y-78464514D01*
X82065580Y-78035942D02*
X81398914Y-78035942D01*
X81589390Y-78035942D02*
X81494152Y-77988323D01*
X81446533Y-77940704D01*
X81398914Y-77845466D01*
X81398914Y-77750228D01*
X81398914Y-77512133D02*
X82065580Y-77274038D01*
X81398914Y-77035942D02*
X82065580Y-77274038D01*
X82303676Y-77369276D01*
X82351295Y-77416895D01*
X82398914Y-77512133D01*
X82017961Y-76702609D02*
X82065580Y-76607371D01*
X82065580Y-76416895D01*
X82017961Y-76321657D01*
X81922723Y-76274038D01*
X81875104Y-76274038D01*
X81779866Y-76321657D01*
X81732247Y-76416895D01*
X81732247Y-76559752D01*
X81684628Y-76654990D01*
X81589390Y-76702609D01*
X81541771Y-76702609D01*
X81446533Y-76654990D01*
X81398914Y-76559752D01*
X81398914Y-76416895D01*
X81446533Y-76321657D01*
X81398914Y-75988323D02*
X81398914Y-75607371D01*
X81065580Y-75845466D02*
X81922723Y-75845466D01*
X82017961Y-75797847D01*
X82065580Y-75702609D01*
X82065580Y-75607371D01*
X82065580Y-74845466D02*
X81541771Y-74845466D01*
X81446533Y-74893085D01*
X81398914Y-74988323D01*
X81398914Y-75178800D01*
X81446533Y-75274038D01*
X82017961Y-74845466D02*
X82065580Y-74940704D01*
X82065580Y-75178800D01*
X82017961Y-75274038D01*
X81922723Y-75321657D01*
X81827485Y-75321657D01*
X81732247Y-75274038D01*
X81684628Y-75178800D01*
X81684628Y-74940704D01*
X81637009Y-74845466D01*
X82065580Y-74226419D02*
X82017961Y-74321657D01*
X81922723Y-74369276D01*
X81065580Y-74369276D01*
X78150580Y-77478323D02*
X79150580Y-76811657D01*
X78150580Y-76811657D02*
X79150580Y-77478323D01*
X79150580Y-75906895D02*
X79150580Y-76478323D01*
X79150580Y-76192609D02*
X78150580Y-76192609D01*
X78293438Y-76287847D01*
X78388676Y-76383085D01*
X78436295Y-76478323D01*
X81184580Y-82308814D02*
X81184580Y-81689766D01*
X81565533Y-82023100D01*
X81565533Y-81880242D01*
X81613152Y-81785004D01*
X81660771Y-81737385D01*
X81756009Y-81689766D01*
X81994104Y-81689766D01*
X82089342Y-81737385D01*
X82136961Y-81785004D01*
X82184580Y-81880242D01*
X82184580Y-82165957D01*
X82136961Y-82261195D01*
X82089342Y-82308814D01*
X81184580Y-81356433D02*
X81184580Y-80737385D01*
X81565533Y-81070719D01*
X81565533Y-80927861D01*
X81613152Y-80832623D01*
X81660771Y-80785004D01*
X81756009Y-80737385D01*
X81994104Y-80737385D01*
X82089342Y-80785004D01*
X82136961Y-80832623D01*
X82184580Y-80927861D01*
X82184580Y-81213576D01*
X82136961Y-81308814D01*
X82089342Y-81356433D01*
X81184580Y-80118338D02*
X81184580Y-80023100D01*
X81232200Y-79927861D01*
X81279819Y-79880242D01*
X81375057Y-79832623D01*
X81565533Y-79785004D01*
X81803628Y-79785004D01*
X81994104Y-79832623D01*
X82089342Y-79880242D01*
X82136961Y-79927861D01*
X82184580Y-80023100D01*
X82184580Y-80118338D01*
X82136961Y-80213576D01*
X82089342Y-80261195D01*
X81994104Y-80308814D01*
X81803628Y-80356433D01*
X81565533Y-80356433D01*
X81375057Y-80308814D01*
X81279819Y-80261195D01*
X81232200Y-80213576D01*
X81184580Y-80118338D01*
X82184580Y-79356433D02*
X81184580Y-79356433D01*
X82184580Y-78785004D02*
X81613152Y-79213576D01*
X81184580Y-78785004D02*
X81756009Y-79356433D01*
D11*
X80483152Y-80589766D02*
X80292676Y-80723100D01*
X80483152Y-80818338D02*
X80083152Y-80818338D01*
X80083152Y-80665957D01*
X80102200Y-80627861D01*
X80121247Y-80608814D01*
X80159342Y-80589766D01*
X80216485Y-80589766D01*
X80254580Y-80608814D01*
X80273628Y-80627861D01*
X80292676Y-80665957D01*
X80292676Y-80818338D01*
X80483152Y-80208814D02*
X80483152Y-80437385D01*
X80483152Y-80323100D02*
X80083152Y-80323100D01*
X80140295Y-80361195D01*
X80178390Y-80399290D01*
X80197438Y-80437385D01*
D10*
X88233871Y-82867447D02*
X88281490Y-82724590D01*
X88329109Y-82676971D01*
X88424347Y-82629352D01*
X88567204Y-82629352D01*
X88662442Y-82676971D01*
X88710061Y-82724590D01*
X88757680Y-82819828D01*
X88757680Y-83200780D01*
X87757680Y-83200780D01*
X87757680Y-82867447D01*
X87805300Y-82772209D01*
X87852919Y-82724590D01*
X87948157Y-82676971D01*
X88043395Y-82676971D01*
X88138633Y-82724590D01*
X88186252Y-82772209D01*
X88233871Y-82867447D01*
X88233871Y-83200780D01*
X88471966Y-82248400D02*
X88471966Y-81772209D01*
X88757680Y-82343638D02*
X87757680Y-82010304D01*
X88757680Y-81676971D01*
X87757680Y-80915066D02*
X87757680Y-81105542D01*
X87805300Y-81200780D01*
X87852919Y-81248400D01*
X87995776Y-81343638D01*
X88186252Y-81391257D01*
X88567204Y-81391257D01*
X88662442Y-81343638D01*
X88710061Y-81296019D01*
X88757680Y-81200780D01*
X88757680Y-81010304D01*
X88710061Y-80915066D01*
X88662442Y-80867447D01*
X88567204Y-80819828D01*
X88329109Y-80819828D01*
X88233871Y-80867447D01*
X88186252Y-80915066D01*
X88138633Y-81010304D01*
X88138633Y-81200780D01*
X88186252Y-81296019D01*
X88233871Y-81343638D01*
X88329109Y-81391257D01*
X88757680Y-79867447D02*
X88757680Y-80438876D01*
X88757680Y-80153161D02*
X87757680Y-80153161D01*
X87900538Y-80248400D01*
X87995776Y-80343638D01*
X88043395Y-80438876D01*
X87852919Y-79486495D02*
X87805300Y-79438876D01*
X87757680Y-79343638D01*
X87757680Y-79105542D01*
X87805300Y-79010304D01*
X87852919Y-78962685D01*
X87948157Y-78915066D01*
X88043395Y-78915066D01*
X88186252Y-78962685D01*
X88757680Y-79534114D01*
X88757680Y-78915066D01*
X88757680Y-78438876D02*
X88757680Y-78248400D01*
X88710061Y-78153161D01*
X88662442Y-78105542D01*
X88519585Y-78010304D01*
X88329109Y-77962685D01*
X87948157Y-77962685D01*
X87852919Y-78010304D01*
X87805300Y-78057923D01*
X87757680Y-78153161D01*
X87757680Y-78343638D01*
X87805300Y-78438876D01*
X87852919Y-78486495D01*
X87948157Y-78534114D01*
X88186252Y-78534114D01*
X88281490Y-78486495D01*
X88329109Y-78438876D01*
X88376728Y-78343638D01*
X88376728Y-78153161D01*
X88329109Y-78057923D01*
X88281490Y-78010304D01*
X88186252Y-77962685D01*
X88471966Y-77581733D02*
X88471966Y-77105542D01*
X88757680Y-77676971D02*
X87757680Y-77343638D01*
X88757680Y-77010304D01*
X88233871Y-76343638D02*
X88233871Y-76676971D01*
X88757680Y-76676971D02*
X87757680Y-76676971D01*
X87757680Y-76200780D01*
X84368633Y-80495066D02*
X85161966Y-80495066D01*
X85255300Y-80448400D01*
X85301966Y-80401733D01*
X85348633Y-80308400D01*
X85348633Y-80121733D01*
X85301966Y-80028400D01*
X85255300Y-79981733D01*
X85161966Y-79935066D01*
X84368633Y-79935066D01*
X85348633Y-78955066D02*
X85348633Y-79515066D01*
X85348633Y-79235066D02*
X84368633Y-79235066D01*
X84508633Y-79328400D01*
X84601966Y-79421733D01*
X84648633Y-79515066D01*
X98492958Y-68064031D02*
X98635815Y-68111650D01*
X98683434Y-68159269D01*
X98731053Y-68254507D01*
X98731053Y-68397364D01*
X98683434Y-68492602D01*
X98635815Y-68540221D01*
X98540577Y-68587840D01*
X98159624Y-68587840D01*
X98159624Y-67587840D01*
X98492958Y-67587840D01*
X98588196Y-67635460D01*
X98635815Y-67683079D01*
X98683434Y-67778317D01*
X98683434Y-67873555D01*
X98635815Y-67968793D01*
X98588196Y-68016412D01*
X98492958Y-68064031D01*
X98159624Y-68064031D01*
X99588196Y-68587840D02*
X99588196Y-68064031D01*
X99540577Y-67968793D01*
X99445339Y-67921174D01*
X99254862Y-67921174D01*
X99159624Y-67968793D01*
X99588196Y-68540221D02*
X99492958Y-68587840D01*
X99254862Y-68587840D01*
X99159624Y-68540221D01*
X99112005Y-68444983D01*
X99112005Y-68349745D01*
X99159624Y-68254507D01*
X99254862Y-68206888D01*
X99492958Y-68206888D01*
X99588196Y-68159269D01*
X99921529Y-67921174D02*
X100302481Y-67921174D01*
X100064386Y-67587840D02*
X100064386Y-68444983D01*
X100112005Y-68540221D01*
X100207243Y-68587840D01*
X100302481Y-68587840D01*
X100492958Y-67921174D02*
X100873910Y-67921174D01*
X100635815Y-67587840D02*
X100635815Y-68444983D01*
X100683434Y-68540221D01*
X100778672Y-68587840D01*
X100873910Y-68587840D01*
X101588196Y-68540221D02*
X101492958Y-68587840D01*
X101302481Y-68587840D01*
X101207243Y-68540221D01*
X101159624Y-68444983D01*
X101159624Y-68064031D01*
X101207243Y-67968793D01*
X101302481Y-67921174D01*
X101492958Y-67921174D01*
X101588196Y-67968793D01*
X101635815Y-68064031D01*
X101635815Y-68159269D01*
X101159624Y-68254507D01*
X102064386Y-68587840D02*
X102064386Y-67921174D01*
X102064386Y-68111650D02*
X102112005Y-68016412D01*
X102159624Y-67968793D01*
X102254862Y-67921174D01*
X102350100Y-67921174D01*
X102588196Y-67921174D02*
X102826291Y-68587840D01*
X103064386Y-67921174D02*
X102826291Y-68587840D01*
X102731053Y-68825936D01*
X102683434Y-68873555D01*
X102588196Y-68921174D01*
X103207243Y-68683079D02*
X103969148Y-68683079D01*
X104778672Y-68492602D02*
X104731053Y-68540221D01*
X104588196Y-68587840D01*
X104492958Y-68587840D01*
X104350100Y-68540221D01*
X104254862Y-68444983D01*
X104207243Y-68349745D01*
X104159624Y-68159269D01*
X104159624Y-68016412D01*
X104207243Y-67825936D01*
X104254862Y-67730698D01*
X104350100Y-67635460D01*
X104492958Y-67587840D01*
X104588196Y-67587840D01*
X104731053Y-67635460D01*
X104778672Y-67683079D01*
X105588196Y-68540221D02*
X105492958Y-68587840D01*
X105302481Y-68587840D01*
X105207243Y-68540221D01*
X105159624Y-68444983D01*
X105159624Y-68064031D01*
X105207243Y-67968793D01*
X105302481Y-67921174D01*
X105492958Y-67921174D01*
X105588196Y-67968793D01*
X105635815Y-68064031D01*
X105635815Y-68159269D01*
X105159624Y-68254507D01*
X106207243Y-68587840D02*
X106112005Y-68540221D01*
X106064386Y-68444983D01*
X106064386Y-67587840D01*
X106731053Y-68587840D02*
X106635815Y-68540221D01*
X106588196Y-68444983D01*
X106588196Y-67587840D01*
X76485638Y-117798571D02*
X76152304Y-117798571D01*
X76152304Y-118322380D02*
X76152304Y-117322380D01*
X76628495Y-117322380D01*
X77009447Y-118322380D02*
X77009447Y-117322380D01*
X77342780Y-118036666D01*
X77676114Y-117322380D01*
X77676114Y-118322380D01*
X78676114Y-118322380D02*
X78104685Y-118322380D01*
X78390400Y-118322380D02*
X78390400Y-117322380D01*
X78295161Y-117465238D01*
X78199923Y-117560476D01*
X78104685Y-117608095D01*
X79247542Y-117750952D02*
X79152304Y-117703333D01*
X79104685Y-117655714D01*
X79057066Y-117560476D01*
X79057066Y-117512857D01*
X79104685Y-117417619D01*
X79152304Y-117370000D01*
X79247542Y-117322380D01*
X79438019Y-117322380D01*
X79533257Y-117370000D01*
X79580876Y-117417619D01*
X79628495Y-117512857D01*
X79628495Y-117560476D01*
X79580876Y-117655714D01*
X79533257Y-117703333D01*
X79438019Y-117750952D01*
X79247542Y-117750952D01*
X79152304Y-117798571D01*
X79104685Y-117846190D01*
X79057066Y-117941428D01*
X79057066Y-118131904D01*
X79104685Y-118227142D01*
X79152304Y-118274761D01*
X79247542Y-118322380D01*
X79438019Y-118322380D01*
X79533257Y-118274761D01*
X79580876Y-118227142D01*
X79628495Y-118131904D01*
X79628495Y-117941428D01*
X79580876Y-117846190D01*
X79533257Y-117798571D01*
X79438019Y-117750952D01*
X79961828Y-117322380D02*
X80199923Y-118322380D01*
X80390400Y-117608095D01*
X80580876Y-118322380D01*
X80818971Y-117322380D01*
X81390400Y-117322380D02*
X81485638Y-117322380D01*
X81580876Y-117370000D01*
X81628495Y-117417619D01*
X81676114Y-117512857D01*
X81723733Y-117703333D01*
X81723733Y-117941428D01*
X81676114Y-118131904D01*
X81628495Y-118227142D01*
X81580876Y-118274761D01*
X81485638Y-118322380D01*
X81390400Y-118322380D01*
X81295161Y-118274761D01*
X81247542Y-118227142D01*
X81199923Y-118131904D01*
X81152304Y-117941428D01*
X81152304Y-117703333D01*
X81199923Y-117512857D01*
X81247542Y-117417619D01*
X81295161Y-117370000D01*
X81390400Y-117322380D01*
X82295161Y-117750952D02*
X82199923Y-117703333D01*
X82152304Y-117655714D01*
X82104685Y-117560476D01*
X82104685Y-117512857D01*
X82152304Y-117417619D01*
X82199923Y-117370000D01*
X82295161Y-117322380D01*
X82485638Y-117322380D01*
X82580876Y-117370000D01*
X82628495Y-117417619D01*
X82676114Y-117512857D01*
X82676114Y-117560476D01*
X82628495Y-117655714D01*
X82580876Y-117703333D01*
X82485638Y-117750952D01*
X82295161Y-117750952D01*
X82199923Y-117798571D01*
X82152304Y-117846190D01*
X82104685Y-117941428D01*
X82104685Y-118131904D01*
X82152304Y-118227142D01*
X82199923Y-118274761D01*
X82295161Y-118322380D01*
X82485638Y-118322380D01*
X82580876Y-118274761D01*
X82628495Y-118227142D01*
X82676114Y-118131904D01*
X82676114Y-117941428D01*
X82628495Y-117846190D01*
X82580876Y-117798571D01*
X82485638Y-117750952D01*
X78699923Y-108422380D02*
X78366590Y-107946190D01*
X78128495Y-108422380D02*
X78128495Y-107422380D01*
X78509447Y-107422380D01*
X78604685Y-107470000D01*
X78652304Y-107517619D01*
X78699923Y-107612857D01*
X78699923Y-107755714D01*
X78652304Y-107850952D01*
X78604685Y-107898571D01*
X78509447Y-107946190D01*
X78128495Y-107946190D01*
X79080876Y-108136666D02*
X79557066Y-108136666D01*
X78985638Y-108422380D02*
X79318971Y-107422380D01*
X79652304Y-108422380D01*
X79985638Y-108422380D02*
X79985638Y-107422380D01*
X80318971Y-108136666D01*
X80652304Y-107422380D01*
X80652304Y-108422380D01*
X97202380Y-98435714D02*
X97202380Y-97769047D01*
X98202380Y-98197619D01*
X97535714Y-96959523D02*
X98202380Y-96959523D01*
X97154761Y-97197619D02*
X97869047Y-97435714D01*
X97869047Y-96816666D01*
X98202380Y-95959523D02*
X98202380Y-96435714D01*
X97202380Y-96435714D01*
X97202380Y-95769047D02*
X98202380Y-95435714D01*
X97202380Y-95102380D01*
X98107142Y-94197619D02*
X98154761Y-94245238D01*
X98202380Y-94388095D01*
X98202380Y-94483333D01*
X98154761Y-94626190D01*
X98059523Y-94721428D01*
X97964285Y-94769047D01*
X97773809Y-94816666D01*
X97630952Y-94816666D01*
X97440476Y-94769047D01*
X97345238Y-94721428D01*
X97250000Y-94626190D01*
X97202380Y-94483333D01*
X97202380Y-94388095D01*
X97250000Y-94245238D01*
X97297619Y-94197619D01*
X98202380Y-93245238D02*
X98202380Y-93816666D01*
X98202380Y-93530952D02*
X97202380Y-93530952D01*
X97345238Y-93626190D01*
X97440476Y-93721428D01*
X97488095Y-93816666D01*
X97250000Y-92292857D02*
X97202380Y-92388095D01*
X97202380Y-92530952D01*
X97250000Y-92673809D01*
X97345238Y-92769047D01*
X97440476Y-92816666D01*
X97630952Y-92864285D01*
X97773809Y-92864285D01*
X97964285Y-92816666D01*
X98059523Y-92769047D01*
X98154761Y-92673809D01*
X98202380Y-92530952D01*
X98202380Y-92435714D01*
X98154761Y-92292857D01*
X98107142Y-92245238D01*
X97773809Y-92245238D01*
X97773809Y-92435714D01*
X97202380Y-91911904D02*
X97202380Y-91292857D01*
X97583333Y-91626190D01*
X97583333Y-91483333D01*
X97630952Y-91388095D01*
X97678571Y-91340476D01*
X97773809Y-91292857D01*
X98011904Y-91292857D01*
X98107142Y-91340476D01*
X98154761Y-91388095D01*
X98202380Y-91483333D01*
X98202380Y-91769047D01*
X98154761Y-91864285D01*
X98107142Y-91911904D01*
X97202380Y-90959523D02*
X97202380Y-90340476D01*
X97583333Y-90673809D01*
X97583333Y-90530952D01*
X97630952Y-90435714D01*
X97678571Y-90388095D01*
X97773809Y-90340476D01*
X98011904Y-90340476D01*
X98107142Y-90388095D01*
X98154761Y-90435714D01*
X98202380Y-90530952D01*
X98202380Y-90816666D01*
X98154761Y-90911904D01*
X98107142Y-90959523D01*
X97297619Y-89959523D02*
X97250000Y-89911904D01*
X97202380Y-89816666D01*
X97202380Y-89578571D01*
X97250000Y-89483333D01*
X97297619Y-89435714D01*
X97392857Y-89388095D01*
X97488095Y-89388095D01*
X97630952Y-89435714D01*
X98202380Y-90007142D01*
X98202380Y-89388095D01*
X97250000Y-88435714D02*
X97202380Y-88530952D01*
X97202380Y-88673809D01*
X97250000Y-88816666D01*
X97345238Y-88911904D01*
X97440476Y-88959523D01*
X97630952Y-89007142D01*
X97773809Y-89007142D01*
X97964285Y-88959523D01*
X98059523Y-88911904D01*
X98154761Y-88816666D01*
X98202380Y-88673809D01*
X98202380Y-88578571D01*
X98154761Y-88435714D01*
X98107142Y-88388095D01*
X97773809Y-88388095D01*
X97773809Y-88578571D01*
X97202380Y-88054761D02*
X98202380Y-87816666D01*
X97488095Y-87626190D01*
X98202380Y-87435714D01*
X97202380Y-87197619D01*
X98154761Y-86769047D02*
X98202380Y-86769047D01*
X98297619Y-86816666D01*
X98345238Y-86864285D01*
X98202380Y-85816666D02*
X98202380Y-86388095D01*
X98202380Y-86102380D02*
X97202380Y-86102380D01*
X97345238Y-86197619D01*
X97440476Y-86292857D01*
X97488095Y-86388095D01*
X97297619Y-85435714D02*
X97250000Y-85388095D01*
X97202380Y-85292857D01*
X97202380Y-85054761D01*
X97250000Y-84959523D01*
X97297619Y-84911904D01*
X97392857Y-84864285D01*
X97488095Y-84864285D01*
X97630952Y-84911904D01*
X98202380Y-85483333D01*
X98202380Y-84864285D01*
X97202380Y-83959523D02*
X97202380Y-84435714D01*
X97678571Y-84483333D01*
X97630952Y-84435714D01*
X97583333Y-84340476D01*
X97583333Y-84102380D01*
X97630952Y-84007142D01*
X97678571Y-83959523D01*
X97773809Y-83911904D01*
X98011904Y-83911904D01*
X98107142Y-83959523D01*
X98154761Y-84007142D01*
X98202380Y-84102380D01*
X98202380Y-84340476D01*
X98154761Y-84435714D01*
X98107142Y-84483333D01*
D12*
X94869047Y-90876190D02*
X94869047Y-91280952D01*
X94892857Y-91328571D01*
X94916666Y-91352380D01*
X94964285Y-91376190D01*
X95059523Y-91376190D01*
X95107142Y-91352380D01*
X95130952Y-91328571D01*
X95154761Y-91280952D01*
X95154761Y-90876190D01*
X95369047Y-90923809D02*
X95392857Y-90900000D01*
X95440476Y-90876190D01*
X95559523Y-90876190D01*
X95607142Y-90900000D01*
X95630952Y-90923809D01*
X95654761Y-90971428D01*
X95654761Y-91019047D01*
X95630952Y-91090476D01*
X95345238Y-91376190D01*
X95654761Y-91376190D01*
D10*
X67595480Y-87558309D02*
X67595480Y-87463071D01*
X67643100Y-87367833D01*
X67690719Y-87320214D01*
X67785957Y-87272595D01*
X67976433Y-87224976D01*
X68214528Y-87224976D01*
X68405004Y-87272595D01*
X68500242Y-87320214D01*
X68547861Y-87367833D01*
X68595480Y-87463071D01*
X68595480Y-87558309D01*
X68547861Y-87653547D01*
X68500242Y-87701166D01*
X68405004Y-87748785D01*
X68214528Y-87796404D01*
X67976433Y-87796404D01*
X67785957Y-87748785D01*
X67690719Y-87701166D01*
X67643100Y-87653547D01*
X67595480Y-87558309D01*
X68500242Y-86796404D02*
X68547861Y-86748785D01*
X68595480Y-86796404D01*
X68547861Y-86844023D01*
X68500242Y-86796404D01*
X68595480Y-86796404D01*
X68595480Y-85796404D02*
X68595480Y-86367833D01*
X68595480Y-86082119D02*
X67595480Y-86082119D01*
X67738338Y-86177357D01*
X67833576Y-86272595D01*
X67881195Y-86367833D01*
X67928814Y-84177357D02*
X68595480Y-84177357D01*
X67928814Y-84605928D02*
X68452623Y-84605928D01*
X68547861Y-84558309D01*
X68595480Y-84463071D01*
X68595480Y-84320214D01*
X68547861Y-84224976D01*
X68500242Y-84177357D01*
X68071671Y-83367833D02*
X68071671Y-83701166D01*
X68595480Y-83701166D02*
X67595480Y-83701166D01*
X67595480Y-83224976D01*
D11*
X66855957Y-85601166D02*
X66875004Y-85620214D01*
X66894052Y-85677357D01*
X66894052Y-85715452D01*
X66875004Y-85772595D01*
X66836909Y-85810690D01*
X66798814Y-85829738D01*
X66722623Y-85848785D01*
X66665480Y-85848785D01*
X66589290Y-85829738D01*
X66551195Y-85810690D01*
X66513100Y-85772595D01*
X66494052Y-85715452D01*
X66494052Y-85677357D01*
X66513100Y-85620214D01*
X66532147Y-85601166D01*
X66494052Y-85258309D02*
X66494052Y-85334500D01*
X66513100Y-85372595D01*
X66532147Y-85391642D01*
X66589290Y-85429738D01*
X66665480Y-85448785D01*
X66817861Y-85448785D01*
X66855957Y-85429738D01*
X66875004Y-85410690D01*
X66894052Y-85372595D01*
X66894052Y-85296404D01*
X66875004Y-85258309D01*
X66855957Y-85239261D01*
X66817861Y-85220214D01*
X66722623Y-85220214D01*
X66684528Y-85239261D01*
X66665480Y-85258309D01*
X66646433Y-85296404D01*
X66646433Y-85372595D01*
X66665480Y-85410690D01*
X66684528Y-85429738D01*
X66722623Y-85448785D01*
D10*
X80345480Y-90248414D02*
X79345480Y-90248414D01*
X80059766Y-89915080D01*
X79345480Y-89581747D01*
X80345480Y-89581747D01*
X79821671Y-88772223D02*
X79869290Y-88629366D01*
X79916909Y-88581747D01*
X80012147Y-88534128D01*
X80155004Y-88534128D01*
X80250242Y-88581747D01*
X80297861Y-88629366D01*
X80345480Y-88724604D01*
X80345480Y-89105557D01*
X79345480Y-89105557D01*
X79345480Y-88772223D01*
X79393100Y-88676985D01*
X79440719Y-88629366D01*
X79535957Y-88581747D01*
X79631195Y-88581747D01*
X79726433Y-88629366D01*
X79774052Y-88676985D01*
X79821671Y-88772223D01*
X79821671Y-89105557D01*
X80250242Y-87534128D02*
X80297861Y-87581747D01*
X80345480Y-87724604D01*
X80345480Y-87819842D01*
X80297861Y-87962700D01*
X80202623Y-88057938D01*
X80107385Y-88105557D01*
X79916909Y-88153176D01*
X79774052Y-88153176D01*
X79583576Y-88105557D01*
X79488338Y-88057938D01*
X79393100Y-87962700D01*
X79345480Y-87819842D01*
X79345480Y-87724604D01*
X79393100Y-87581747D01*
X79440719Y-87534128D01*
X79345480Y-87200795D02*
X79345480Y-86581747D01*
X79726433Y-86915080D01*
X79726433Y-86772223D01*
X79774052Y-86676985D01*
X79821671Y-86629366D01*
X79916909Y-86581747D01*
X80155004Y-86581747D01*
X80250242Y-86629366D01*
X80297861Y-86676985D01*
X80345480Y-86772223D01*
X80345480Y-87057938D01*
X80297861Y-87153176D01*
X80250242Y-87200795D01*
X79345480Y-85962700D02*
X79345480Y-85867461D01*
X79393100Y-85772223D01*
X79440719Y-85724604D01*
X79535957Y-85676985D01*
X79726433Y-85629366D01*
X79964528Y-85629366D01*
X80155004Y-85676985D01*
X80250242Y-85724604D01*
X80297861Y-85772223D01*
X80345480Y-85867461D01*
X80345480Y-85962700D01*
X80297861Y-86057938D01*
X80250242Y-86105557D01*
X80155004Y-86153176D01*
X79964528Y-86200795D01*
X79726433Y-86200795D01*
X79535957Y-86153176D01*
X79440719Y-86105557D01*
X79393100Y-86057938D01*
X79345480Y-85962700D01*
X74465480Y-90248414D02*
X73465480Y-90248414D01*
X74179766Y-89915080D01*
X73465480Y-89581747D01*
X74465480Y-89581747D01*
X73941671Y-88772223D02*
X73989290Y-88629366D01*
X74036909Y-88581747D01*
X74132147Y-88534128D01*
X74275004Y-88534128D01*
X74370242Y-88581747D01*
X74417861Y-88629366D01*
X74465480Y-88724604D01*
X74465480Y-89105557D01*
X73465480Y-89105557D01*
X73465480Y-88772223D01*
X73513100Y-88676985D01*
X73560719Y-88629366D01*
X73655957Y-88581747D01*
X73751195Y-88581747D01*
X73846433Y-88629366D01*
X73894052Y-88676985D01*
X73941671Y-88772223D01*
X73941671Y-89105557D01*
X74370242Y-87534128D02*
X74417861Y-87581747D01*
X74465480Y-87724604D01*
X74465480Y-87819842D01*
X74417861Y-87962700D01*
X74322623Y-88057938D01*
X74227385Y-88105557D01*
X74036909Y-88153176D01*
X73894052Y-88153176D01*
X73703576Y-88105557D01*
X73608338Y-88057938D01*
X73513100Y-87962700D01*
X73465480Y-87819842D01*
X73465480Y-87724604D01*
X73513100Y-87581747D01*
X73560719Y-87534128D01*
X73465480Y-87200795D02*
X73465480Y-86581747D01*
X73846433Y-86915080D01*
X73846433Y-86772223D01*
X73894052Y-86676985D01*
X73941671Y-86629366D01*
X74036909Y-86581747D01*
X74275004Y-86581747D01*
X74370242Y-86629366D01*
X74417861Y-86676985D01*
X74465480Y-86772223D01*
X74465480Y-87057938D01*
X74417861Y-87153176D01*
X74370242Y-87200795D01*
X73465480Y-85962700D02*
X73465480Y-85867461D01*
X73513100Y-85772223D01*
X73560719Y-85724604D01*
X73655957Y-85676985D01*
X73846433Y-85629366D01*
X74084528Y-85629366D01*
X74275004Y-85676985D01*
X74370242Y-85724604D01*
X74417861Y-85772223D01*
X74465480Y-85867461D01*
X74465480Y-85962700D01*
X74417861Y-86057938D01*
X74370242Y-86105557D01*
X74275004Y-86153176D01*
X74084528Y-86200795D01*
X73846433Y-86200795D01*
X73655957Y-86153176D01*
X73560719Y-86105557D01*
X73513100Y-86057938D01*
X73465480Y-85962700D01*
X81288190Y-96490480D02*
X81383428Y-96490480D01*
X81478666Y-96538100D01*
X81526285Y-96585719D01*
X81573904Y-96680957D01*
X81621523Y-96871433D01*
X81621523Y-97109528D01*
X81573904Y-97300004D01*
X81526285Y-97395242D01*
X81478666Y-97442861D01*
X81383428Y-97490480D01*
X81288190Y-97490480D01*
X81192952Y-97442861D01*
X81145333Y-97395242D01*
X81097714Y-97300004D01*
X81050095Y-97109528D01*
X81050095Y-96871433D01*
X81097714Y-96680957D01*
X81145333Y-96585719D01*
X81192952Y-96538100D01*
X81288190Y-96490480D01*
X82050095Y-97395242D02*
X82097714Y-97442861D01*
X82050095Y-97490480D01*
X82002476Y-97442861D01*
X82050095Y-97395242D01*
X82050095Y-97490480D01*
X83050095Y-97490480D02*
X82478666Y-97490480D01*
X82764380Y-97490480D02*
X82764380Y-96490480D01*
X82669142Y-96633338D01*
X82573904Y-96728576D01*
X82478666Y-96776195D01*
X84669142Y-96823814D02*
X84669142Y-97490480D01*
X84240571Y-96823814D02*
X84240571Y-97347623D01*
X84288190Y-97442861D01*
X84383428Y-97490480D01*
X84526285Y-97490480D01*
X84621523Y-97442861D01*
X84669142Y-97395242D01*
X85478666Y-96966671D02*
X85145333Y-96966671D01*
X85145333Y-97490480D02*
X85145333Y-96490480D01*
X85621523Y-96490480D01*
D11*
X83245333Y-95750957D02*
X83226285Y-95770004D01*
X83169142Y-95789052D01*
X83131047Y-95789052D01*
X83073904Y-95770004D01*
X83035809Y-95731909D01*
X83016761Y-95693814D01*
X82997714Y-95617623D01*
X82997714Y-95560480D01*
X83016761Y-95484290D01*
X83035809Y-95446195D01*
X83073904Y-95408100D01*
X83131047Y-95389052D01*
X83169142Y-95389052D01*
X83226285Y-95408100D01*
X83245333Y-95427147D01*
X83378666Y-95389052D02*
X83626285Y-95389052D01*
X83492952Y-95541433D01*
X83550095Y-95541433D01*
X83588190Y-95560480D01*
X83607238Y-95579528D01*
X83626285Y-95617623D01*
X83626285Y-95712861D01*
X83607238Y-95750957D01*
X83588190Y-95770004D01*
X83550095Y-95789052D01*
X83435809Y-95789052D01*
X83397714Y-95770004D01*
X83378666Y-95750957D01*
D10*
X103280952Y-110050000D02*
X103185714Y-110002380D01*
X103042857Y-110002380D01*
X102900000Y-110050000D01*
X102804761Y-110145238D01*
X102757142Y-110240476D01*
X102709523Y-110430952D01*
X102709523Y-110573809D01*
X102757142Y-110764285D01*
X102804761Y-110859523D01*
X102900000Y-110954761D01*
X103042857Y-111002380D01*
X103138095Y-111002380D01*
X103280952Y-110954761D01*
X103328571Y-110907142D01*
X103328571Y-110573809D01*
X103138095Y-110573809D01*
X104090476Y-110478571D02*
X104233333Y-110526190D01*
X104280952Y-110573809D01*
X104328571Y-110669047D01*
X104328571Y-110811904D01*
X104280952Y-110907142D01*
X104233333Y-110954761D01*
X104138095Y-111002380D01*
X103757142Y-111002380D01*
X103757142Y-110002380D01*
X104090476Y-110002380D01*
X104185714Y-110050000D01*
X104233333Y-110097619D01*
X104280952Y-110192857D01*
X104280952Y-110288095D01*
X104233333Y-110383333D01*
X104185714Y-110430952D01*
X104090476Y-110478571D01*
X103757142Y-110478571D01*
X104709523Y-110716666D02*
X105185714Y-110716666D01*
X104614285Y-111002380D02*
X104947619Y-110002380D01*
X105280952Y-111002380D01*
X105614285Y-110621428D02*
X106376190Y-110621428D01*
X106852380Y-111002380D02*
X106852380Y-110002380D01*
X107233333Y-110002380D01*
X107328571Y-110050000D01*
X107376190Y-110097619D01*
X107423809Y-110192857D01*
X107423809Y-110335714D01*
X107376190Y-110430952D01*
X107328571Y-110478571D01*
X107233333Y-110526190D01*
X106852380Y-110526190D01*
X107852380Y-111002380D02*
X107852380Y-110335714D01*
X107852380Y-110526190D02*
X107900000Y-110430952D01*
X107947619Y-110383333D01*
X108042857Y-110335714D01*
X108138095Y-110335714D01*
X108614285Y-111002380D02*
X108519047Y-110954761D01*
X108471428Y-110907142D01*
X108423809Y-110811904D01*
X108423809Y-110526190D01*
X108471428Y-110430952D01*
X108519047Y-110383333D01*
X108614285Y-110335714D01*
X108757142Y-110335714D01*
X108852380Y-110383333D01*
X108900000Y-110430952D01*
X108947619Y-110526190D01*
X108947619Y-110811904D01*
X108900000Y-110907142D01*
X108852380Y-110954761D01*
X108757142Y-111002380D01*
X108614285Y-111002380D01*
X109804761Y-111002380D02*
X109804761Y-110002380D01*
X109804761Y-110954761D02*
X109709523Y-111002380D01*
X109519047Y-111002380D01*
X109423809Y-110954761D01*
X109376190Y-110907142D01*
X109328571Y-110811904D01*
X109328571Y-110526190D01*
X109376190Y-110430952D01*
X109423809Y-110383333D01*
X109519047Y-110335714D01*
X109709523Y-110335714D01*
X109804761Y-110383333D01*
X110709523Y-110335714D02*
X110709523Y-111002380D01*
X110280952Y-110335714D02*
X110280952Y-110859523D01*
X110328571Y-110954761D01*
X110423809Y-111002380D01*
X110566666Y-111002380D01*
X110661904Y-110954761D01*
X110709523Y-110907142D01*
X111614285Y-110954761D02*
X111519047Y-111002380D01*
X111328571Y-111002380D01*
X111233333Y-110954761D01*
X111185714Y-110907142D01*
X111138095Y-110811904D01*
X111138095Y-110526190D01*
X111185714Y-110430952D01*
X111233333Y-110383333D01*
X111328571Y-110335714D01*
X111519047Y-110335714D01*
X111614285Y-110383333D01*
X111900000Y-110335714D02*
X112280952Y-110335714D01*
X112042857Y-110002380D02*
X112042857Y-110859523D01*
X112090476Y-110954761D01*
X112185714Y-111002380D01*
X112280952Y-111002380D01*
X112614285Y-111002380D02*
X112614285Y-110335714D01*
X112614285Y-110002380D02*
X112566666Y-110050000D01*
X112614285Y-110097619D01*
X112661904Y-110050000D01*
X112614285Y-110002380D01*
X112614285Y-110097619D01*
X113233333Y-111002380D02*
X113138095Y-110954761D01*
X113090476Y-110907142D01*
X113042857Y-110811904D01*
X113042857Y-110526190D01*
X113090476Y-110430952D01*
X113138095Y-110383333D01*
X113233333Y-110335714D01*
X113376190Y-110335714D01*
X113471428Y-110383333D01*
X113519047Y-110430952D01*
X113566666Y-110526190D01*
X113566666Y-110811904D01*
X113519047Y-110907142D01*
X113471428Y-110954761D01*
X113376190Y-111002380D01*
X113233333Y-111002380D01*
X113995238Y-110335714D02*
X113995238Y-111002380D01*
X113995238Y-110430952D02*
X114042857Y-110383333D01*
X114138095Y-110335714D01*
X114280952Y-110335714D01*
X114376190Y-110383333D01*
X114423809Y-110478571D01*
X114423809Y-111002380D01*
X114900000Y-111002380D02*
X114900000Y-110002380D01*
X115376190Y-110335714D02*
X115376190Y-111002380D01*
X115376190Y-110430952D02*
X115423809Y-110383333D01*
X115519047Y-110335714D01*
X115661904Y-110335714D01*
X115757142Y-110383333D01*
X115804761Y-110478571D01*
X115804761Y-111002380D01*
X116709523Y-111002380D02*
X116709523Y-110002380D01*
X116709523Y-110954761D02*
X116614285Y-111002380D01*
X116423809Y-111002380D01*
X116328571Y-110954761D01*
X116280952Y-110907142D01*
X116233333Y-110811904D01*
X116233333Y-110526190D01*
X116280952Y-110430952D01*
X116328571Y-110383333D01*
X116423809Y-110335714D01*
X116614285Y-110335714D01*
X116709523Y-110383333D01*
X117185714Y-111002380D02*
X117185714Y-110335714D01*
X117185714Y-110002380D02*
X117138095Y-110050000D01*
X117185714Y-110097619D01*
X117233333Y-110050000D01*
X117185714Y-110002380D01*
X117185714Y-110097619D01*
X118090476Y-110954761D02*
X117995238Y-111002380D01*
X117804761Y-111002380D01*
X117709523Y-110954761D01*
X117661904Y-110907142D01*
X117614285Y-110811904D01*
X117614285Y-110526190D01*
X117661904Y-110430952D01*
X117709523Y-110383333D01*
X117804761Y-110335714D01*
X117995238Y-110335714D01*
X118090476Y-110383333D01*
X118947619Y-111002380D02*
X118947619Y-110478571D01*
X118899999Y-110383333D01*
X118804761Y-110335714D01*
X118614285Y-110335714D01*
X118519047Y-110383333D01*
X118947619Y-110954761D02*
X118852380Y-111002380D01*
X118614285Y-111002380D01*
X118519047Y-110954761D01*
X118471428Y-110859523D01*
X118471428Y-110764285D01*
X118519047Y-110669047D01*
X118614285Y-110621428D01*
X118852380Y-110621428D01*
X118947619Y-110573809D01*
X119280952Y-110335714D02*
X119661904Y-110335714D01*
X119423809Y-110002380D02*
X119423809Y-110859523D01*
X119471428Y-110954761D01*
X119566666Y-111002380D01*
X119661904Y-111002380D01*
X120138095Y-111002380D02*
X120042857Y-110954761D01*
X119995238Y-110907142D01*
X119947619Y-110811904D01*
X119947619Y-110526190D01*
X119995238Y-110430952D01*
X120042857Y-110383333D01*
X120138095Y-110335714D01*
X120280952Y-110335714D01*
X120376190Y-110383333D01*
X120423809Y-110430952D01*
X120471428Y-110526190D01*
X120471428Y-110811904D01*
X120423809Y-110907142D01*
X120376190Y-110954761D01*
X120280952Y-111002380D01*
X120138095Y-111002380D01*
X120899999Y-111002380D02*
X120899999Y-110335714D01*
X120899999Y-110526190D02*
X120947619Y-110430952D01*
X120995238Y-110383333D01*
X121090476Y-110335714D01*
X121185714Y-110335714D01*
X105300741Y-72200920D02*
X105300741Y-71200920D01*
X105872170Y-72200920D01*
X105872170Y-71200920D01*
X106348360Y-72200920D02*
X106348360Y-71534254D01*
X106348360Y-71200920D02*
X106300741Y-71248540D01*
X106348360Y-71296159D01*
X106395980Y-71248540D01*
X106348360Y-71200920D01*
X106348360Y-71296159D01*
X106824551Y-71534254D02*
X106824551Y-72200920D01*
X106824551Y-71629492D02*
X106872170Y-71581873D01*
X106967408Y-71534254D01*
X107110265Y-71534254D01*
X107205503Y-71581873D01*
X107253122Y-71677111D01*
X107253122Y-72200920D01*
X107586456Y-71534254D02*
X107967408Y-71534254D01*
X107729313Y-71200920D02*
X107729313Y-72058063D01*
X107776932Y-72153301D01*
X107872170Y-72200920D01*
X107967408Y-72200920D01*
X108681694Y-72153301D02*
X108586456Y-72200920D01*
X108395980Y-72200920D01*
X108300741Y-72153301D01*
X108253122Y-72058063D01*
X108253122Y-71677111D01*
X108300741Y-71581873D01*
X108395980Y-71534254D01*
X108586456Y-71534254D01*
X108681694Y-71581873D01*
X108729313Y-71677111D01*
X108729313Y-71772349D01*
X108253122Y-71867587D01*
X109157884Y-71534254D02*
X109157884Y-72200920D01*
X109157884Y-71629492D02*
X109205503Y-71581873D01*
X109300741Y-71534254D01*
X109443599Y-71534254D01*
X109538837Y-71581873D01*
X109586456Y-71677111D01*
X109586456Y-72200920D01*
X110491218Y-72200920D02*
X110491218Y-71200920D01*
X110491218Y-72153301D02*
X110395980Y-72200920D01*
X110205503Y-72200920D01*
X110110265Y-72153301D01*
X110062646Y-72105682D01*
X110015027Y-72010444D01*
X110015027Y-71724730D01*
X110062646Y-71629492D01*
X110110265Y-71581873D01*
X110205503Y-71534254D01*
X110395980Y-71534254D01*
X110491218Y-71581873D01*
X111110265Y-72200920D02*
X111015027Y-72153301D01*
X110967408Y-72105682D01*
X110919789Y-72010444D01*
X110919789Y-71724730D01*
X110967408Y-71629492D01*
X111015027Y-71581873D01*
X111110265Y-71534254D01*
X111253122Y-71534254D01*
X111348360Y-71581873D01*
X111395980Y-71629492D01*
X111443599Y-71724730D01*
X111443599Y-72010444D01*
X111395980Y-72105682D01*
X111348360Y-72153301D01*
X111253122Y-72200920D01*
X111110265Y-72200920D01*
X111634075Y-72296159D02*
X112395980Y-72296159D01*
X112538837Y-71200920D02*
X113157884Y-71200920D01*
X112824551Y-71581873D01*
X112967408Y-71581873D01*
X113062646Y-71629492D01*
X113110265Y-71677111D01*
X113157884Y-71772349D01*
X113157884Y-72010444D01*
X113110265Y-72105682D01*
X113062646Y-72153301D01*
X112967408Y-72200920D01*
X112681694Y-72200920D01*
X112586456Y-72153301D01*
X112538837Y-72105682D01*
X113491218Y-72200920D02*
X114015027Y-71534254D01*
X113491218Y-71534254D02*
X114015027Y-72200920D01*
X114300741Y-71200920D02*
X114919789Y-71200920D01*
X114586456Y-71581873D01*
X114729313Y-71581873D01*
X114824551Y-71629492D01*
X114872170Y-71677111D01*
X114919789Y-71772349D01*
X114919789Y-72010444D01*
X114872170Y-72105682D01*
X114824551Y-72153301D01*
X114729313Y-72200920D01*
X114443599Y-72200920D01*
X114348360Y-72153301D01*
X114300741Y-72105682D01*
X115110265Y-72296159D02*
X115872170Y-72296159D01*
X116634075Y-71248540D02*
X116538837Y-71200920D01*
X116395980Y-71200920D01*
X116253122Y-71248540D01*
X116157884Y-71343778D01*
X116110265Y-71439016D01*
X116062646Y-71629492D01*
X116062646Y-71772349D01*
X116110265Y-71962825D01*
X116157884Y-72058063D01*
X116253122Y-72153301D01*
X116395980Y-72200920D01*
X116491218Y-72200920D01*
X116634075Y-72153301D01*
X116681694Y-72105682D01*
X116681694Y-71772349D01*
X116491218Y-71772349D01*
X117110265Y-72200920D02*
X117110265Y-71200920D01*
X117681694Y-72200920D01*
X117681694Y-71200920D01*
X118157884Y-72200920D02*
X118157884Y-71200920D01*
X118395980Y-71200920D01*
X118538837Y-71248540D01*
X118634075Y-71343778D01*
X118681694Y-71439016D01*
X118729313Y-71629492D01*
X118729313Y-71772349D01*
X118681694Y-71962825D01*
X118634075Y-72058063D01*
X118538837Y-72153301D01*
X118395980Y-72200920D01*
X118157884Y-72200920D01*
X119157884Y-72200920D02*
X119157884Y-71200920D01*
X119538837Y-71200920D01*
X119634075Y-71248540D01*
X119681694Y-71296159D01*
X119729313Y-71391397D01*
X119729313Y-71534254D01*
X119681694Y-71629492D01*
X119634075Y-71677111D01*
X119538837Y-71724730D01*
X119157884Y-71724730D01*
X120586456Y-72200920D02*
X120586456Y-71677111D01*
X120538837Y-71581873D01*
X120443599Y-71534254D01*
X120253122Y-71534254D01*
X120157884Y-71581873D01*
X120586456Y-72153301D02*
X120491218Y-72200920D01*
X120253122Y-72200920D01*
X120157884Y-72153301D01*
X120110265Y-72058063D01*
X120110265Y-71962825D01*
X120157884Y-71867587D01*
X120253122Y-71819968D01*
X120491218Y-71819968D01*
X120586456Y-71772349D01*
X121491218Y-72200920D02*
X121491218Y-71200920D01*
X121491218Y-72153301D02*
X121395980Y-72200920D01*
X121205503Y-72200920D01*
X121110265Y-72153301D01*
X121062646Y-72105682D01*
X121015027Y-72010444D01*
X121015027Y-71724730D01*
X121062646Y-71629492D01*
X121110265Y-71581873D01*
X121205503Y-71534254D01*
X121395980Y-71534254D01*
X121491218Y-71581873D01*
D13*
X105034000Y-95264000D02*
X106634000Y-95264000D01*
X105034000Y-96064000D02*
X105034000Y-95264000D01*
X106634000Y-95264000D02*
X106634000Y-96064000D01*
X106634000Y-96064000D02*
X105034000Y-96064000D01*
X94800000Y-108537500D02*
X94800000Y-110137500D01*
X94000000Y-108537500D02*
X94800000Y-108537500D01*
X94000000Y-110137500D02*
X94000000Y-108537500D01*
X94800000Y-110137500D02*
X94000000Y-110137500D01*
X77126500Y-79723100D02*
X77126500Y-81323100D01*
X77126500Y-81323100D02*
X76326500Y-81323100D01*
X76326500Y-79723100D02*
X77126500Y-79723100D01*
X76326500Y-81323100D02*
X76326500Y-79723100D01*
X78112200Y-79723100D02*
X78912200Y-79723100D01*
X78912200Y-81323100D02*
X78112200Y-81323100D01*
X78112200Y-81323100D02*
X78112200Y-79723100D01*
X78912200Y-79723100D02*
X78912200Y-81323100D01*
X87000000Y-92181600D02*
X86200000Y-92181600D01*
X86200000Y-90581600D02*
X87000000Y-90581600D01*
X87000000Y-90581600D02*
X87000000Y-92181600D01*
X86200000Y-92181600D02*
X86200000Y-90581600D01*
X90387500Y-103200000D02*
X90387500Y-104000000D01*
X90387500Y-104000000D02*
X88787500Y-104000000D01*
X88787500Y-103200000D02*
X90387500Y-103200000D01*
X88787500Y-104000000D02*
X88787500Y-103200000D01*
X88397800Y-85871000D02*
X86797800Y-85871000D01*
X86797800Y-85071000D02*
X88397800Y-85071000D01*
X86797800Y-85871000D02*
X86797800Y-85071000D01*
X88397800Y-85071000D02*
X88397800Y-85871000D01*
X106581000Y-117170000D02*
X96781000Y-117170000D01*
X96781000Y-98770000D02*
X106681000Y-98770000D01*
X106581000Y-99770000D02*
X105581000Y-98770000D01*
X96781000Y-117170000D02*
X96781000Y-98770000D01*
X106581000Y-99770000D02*
X106581000Y-117170000D01*
X79902200Y-81323100D02*
X79902200Y-79723100D01*
X79902200Y-79723100D02*
X80702200Y-79723100D01*
X80702200Y-79723100D02*
X80702200Y-81323100D01*
X80702200Y-81323100D02*
X79902200Y-81323100D01*
X87355300Y-81698400D02*
X83430300Y-81698400D01*
X82455300Y-77798400D02*
X87355300Y-77798400D01*
X87355300Y-77798400D02*
X87355300Y-81698400D01*
X83430300Y-81698400D02*
X82455300Y-80723400D01*
X82455300Y-80723400D02*
X82455300Y-77798400D01*
X75640400Y-116920000D02*
X75640400Y-100020000D01*
X75640400Y-100020000D02*
X76640400Y-99020000D01*
X76640400Y-99020000D02*
X83140400Y-99020000D01*
X83140400Y-99020000D02*
X83140400Y-116920000D01*
X83140400Y-116920000D02*
X75640400Y-116920000D01*
X94150000Y-91975000D02*
X96775000Y-91975000D01*
X93725000Y-90325000D02*
X96775000Y-90325000D01*
X93725000Y-90325000D02*
X93725000Y-91575000D01*
X94150000Y-91975000D02*
X93725000Y-91575000D01*
X96775000Y-90325000D02*
X96775000Y-91975000D01*
X66313100Y-84734500D02*
X67113100Y-84734500D01*
X66313100Y-86334500D02*
X66313100Y-84734500D01*
X67113100Y-84734500D02*
X67113100Y-86334500D01*
X67113100Y-86334500D02*
X66313100Y-86334500D01*
X70513100Y-90462700D02*
X70513100Y-84462700D01*
X77513100Y-91462700D02*
X71513100Y-91462700D01*
X77513100Y-84462700D02*
X77513100Y-91462700D01*
X71513100Y-91462700D02*
X70513100Y-90462700D01*
X70513100Y-84462700D02*
X77513100Y-84462700D01*
X82512000Y-95208100D02*
X84112000Y-95208100D01*
X82512000Y-96008100D02*
X82512000Y-95208100D01*
X84112000Y-96008100D02*
X82512000Y-96008100D01*
X84112000Y-95208100D02*
X84112000Y-96008100D01*
D14*
X67256200Y-130009000D02*
X113556200Y-130009000D01*
X65406200Y-121109000D02*
X65556200Y-121109000D01*
X115256200Y-121109000D02*
X115406200Y-121109000D01*
X115056200Y-128509000D02*
X115056200Y-121309000D01*
X65756200Y-128509000D02*
X65756200Y-121309000D01*
X65756200Y-121309000D02*
G75*
G03*
X65556200Y-121109000I-200001J-1D01*
G01*
X65756200Y-128509000D02*
G75*
G03*
X67256200Y-130009000I1500001J1D01*
G01*
X64906200Y-120609000D02*
G75*
G03*
X65406200Y-121109000I500001J1D01*
G01*
X115256200Y-121109000D02*
G75*
G03*
X115056200Y-121309000I0J-200000D01*
G01*
X113556200Y-130009000D02*
G75*
G03*
X115056200Y-128509000I0J1500000D01*
G01*
X115406200Y-121109000D02*
G75*
G03*
X115906200Y-120609000I0J500000D01*
G01*
M02*
