G04 #@! TF.GenerationSoftware,KiCad,Pcbnew,(6.0.8)*
G04 #@! TF.CreationDate,2022-12-27T12:07:26-05:00*
G04 #@! TF.ProjectId,mbc30flash,6d626333-3066-46c6-9173-682e6b696361,rev?*
G04 #@! TF.SameCoordinates,Original*
G04 #@! TF.FileFunction,Profile,NP*
%FSLAX46Y46*%
G04 Gerber Fmt 4.6, Leading zero omitted, Abs format (unit mm)*
G04 Created by KiCad (PCBNEW (6.0.8)) date 2022-12-27 12:07:26*
%MOMM*%
%LPD*%
G01*
G04 APERTURE LIST*
G04 #@! TA.AperFunction,Profile*
%ADD10C,0.025400*%
G04 #@! TD*
G04 #@! TA.AperFunction,Profile*
%ADD11C,0.200000*%
G04 #@! TD*
G04 APERTURE END LIST*
D10*
X67901820Y-75602040D02*
X67901820Y-77708800D01*
X74124820Y-75602040D02*
X67901820Y-75602040D01*
X64906220Y-121402000D02*
X65606220Y-121402000D01*
X115906220Y-111705600D02*
X115906220Y-72502000D01*
X111856220Y-72502000D02*
X111856220Y-69802000D01*
X64906220Y-69802000D02*
X64906220Y-111705600D01*
X67146220Y-130002000D02*
X113776220Y-130002000D01*
X65606220Y-121402000D02*
X65606220Y-128442000D01*
X115206220Y-121402000D02*
X115906220Y-121402000D01*
X115206220Y-128362000D02*
X115206220Y-121402000D01*
X111856220Y-69802000D02*
X64906220Y-69802000D01*
X65606221Y-128442000D02*
G75*
G03*
X67146220Y-130002000I1524979J-34700D01*
G01*
X113776224Y-130002042D02*
G75*
G03*
X115206220Y-128362000I-150924J1575042D01*
G01*
X115906220Y-72502000D02*
X111856220Y-72502000D01*
X67901820Y-77708800D02*
X74124820Y-77708800D01*
X115906220Y-121402000D02*
X115906220Y-111705600D01*
X64906220Y-111705600D02*
X64906220Y-121402000D01*
D11*
X87249000Y-73750000D02*
G75*
G03*
X87249000Y-73750000I-1500000J0D01*
G01*
D10*
X74124820Y-75602040D02*
X74124820Y-77708800D01*
D11*
X91650000Y-89500000D02*
G75*
G03*
X91650000Y-89500000I-1100000J0D01*
G01*
X94200000Y-114500000D02*
G75*
G03*
X94200000Y-114500000I-3650000J0D01*
G01*
M02*
