G04 #@! TF.GenerationSoftware,KiCad,Pcbnew,(6.0.8)*
G04 #@! TF.CreationDate,2022-12-25T17:24:50-05:00*
G04 #@! TF.ProjectId,mbc30flash,6d626333-3066-46c6-9173-682e6b696361,rev?*
G04 #@! TF.SameCoordinates,Original*
G04 #@! TF.FileFunction,Copper,L2,Bot*
G04 #@! TF.FilePolarity,Positive*
%FSLAX46Y46*%
G04 Gerber Fmt 4.6, Leading zero omitted, Abs format (unit mm)*
G04 Created by KiCad (PCBNEW (6.0.8)) date 2022-12-25 17:24:50*
%MOMM*%
%LPD*%
G01*
G04 APERTURE LIST*
G04 #@! TA.AperFunction,ComponentPad*
%ADD10C,0.800000*%
G04 #@! TD*
G04 #@! TA.AperFunction,SMDPad,CuDef*
%ADD11C,2.032000*%
G04 #@! TD*
G04 #@! TA.AperFunction,ViaPad*
%ADD12C,0.800000*%
G04 #@! TD*
G04 #@! TA.AperFunction,ViaPad*
%ADD13C,2.050000*%
G04 #@! TD*
G04 #@! TA.AperFunction,Conductor*
%ADD14C,0.200000*%
G04 #@! TD*
G04 #@! TA.AperFunction,Conductor*
%ADD15C,1.000000*%
G04 #@! TD*
G04 #@! TA.AperFunction,Conductor*
%ADD16C,0.400000*%
G04 #@! TD*
G04 APERTURE END LIST*
G36*
X104856200Y-130009000D02*
G01*
X104456200Y-130009000D01*
X104456200Y-122809000D01*
X104856200Y-122809000D01*
X104856200Y-130009000D01*
G37*
G36*
X83856200Y-130009000D02*
G01*
X83456200Y-130009000D01*
X83456200Y-122809000D01*
X83856200Y-122809000D01*
X83856200Y-130009000D01*
G37*
G36*
X100356200Y-130009000D02*
G01*
X99956200Y-130009000D01*
X99956200Y-122809000D01*
X100356200Y-122809000D01*
X100356200Y-130009000D01*
G37*
G36*
X112356200Y-130009000D02*
G01*
X111956200Y-130009000D01*
X111956200Y-122809000D01*
X112356200Y-122809000D01*
X112356200Y-130009000D01*
G37*
G36*
X82356200Y-130009000D02*
G01*
X81956200Y-130009000D01*
X81956200Y-122809000D01*
X82356200Y-122809000D01*
X82356200Y-130009000D01*
G37*
G36*
X68856200Y-130009000D02*
G01*
X68456200Y-130009000D01*
X68456200Y-122809000D01*
X68856200Y-122809000D01*
X68856200Y-130009000D01*
G37*
G36*
X95856200Y-130009000D02*
G01*
X95456200Y-130009000D01*
X95456200Y-122809000D01*
X95856200Y-122809000D01*
X95856200Y-130009000D01*
G37*
G36*
X85356200Y-130009000D02*
G01*
X84956200Y-130009000D01*
X84956200Y-122809000D01*
X85356200Y-122809000D01*
X85356200Y-130009000D01*
G37*
G36*
X76356200Y-130009000D02*
G01*
X75956200Y-130009000D01*
X75956200Y-122809000D01*
X76356200Y-122809000D01*
X76356200Y-130009000D01*
G37*
G36*
X74856200Y-130009000D02*
G01*
X74456200Y-130009000D01*
X74456200Y-122809000D01*
X74856200Y-122809000D01*
X74856200Y-130009000D01*
G37*
G36*
X67106200Y-130009000D02*
G01*
X66706200Y-130009000D01*
X66706200Y-122809000D01*
X67106200Y-122809000D01*
X67106200Y-130009000D01*
G37*
G36*
X103356200Y-130009000D02*
G01*
X102956200Y-130009000D01*
X102956200Y-122809000D01*
X103356200Y-122809000D01*
X103356200Y-130009000D01*
G37*
G36*
X89856200Y-130009000D02*
G01*
X89456200Y-130009000D01*
X89456200Y-122809000D01*
X89856200Y-122809000D01*
X89856200Y-130009000D01*
G37*
G36*
X71856200Y-130009000D02*
G01*
X71456200Y-130009000D01*
X71456200Y-122809000D01*
X71856200Y-122809000D01*
X71856200Y-130009000D01*
G37*
G36*
X79356200Y-130009000D02*
G01*
X78956200Y-130009000D01*
X78956200Y-122809000D01*
X79356200Y-122809000D01*
X79356200Y-130009000D01*
G37*
G36*
X109356200Y-130009000D02*
G01*
X108956200Y-130009000D01*
X108956200Y-122809000D01*
X109356200Y-122809000D01*
X109356200Y-130009000D01*
G37*
G36*
X86856200Y-130009000D02*
G01*
X86456200Y-130009000D01*
X86456200Y-122809000D01*
X86856200Y-122809000D01*
X86856200Y-130009000D01*
G37*
G36*
X80856200Y-130009000D02*
G01*
X80456200Y-130009000D01*
X80456200Y-122809000D01*
X80856200Y-122809000D01*
X80856200Y-130009000D01*
G37*
G36*
X107856200Y-130009000D02*
G01*
X107456200Y-130009000D01*
X107456200Y-122809000D01*
X107856200Y-122809000D01*
X107856200Y-130009000D01*
G37*
G36*
X110856200Y-130009000D02*
G01*
X110456200Y-130009000D01*
X110456200Y-122809000D01*
X110856200Y-122809000D01*
X110856200Y-130009000D01*
G37*
G36*
X77856200Y-130009000D02*
G01*
X77456200Y-130009000D01*
X77456200Y-122809000D01*
X77856200Y-122809000D01*
X77856200Y-130009000D01*
G37*
G36*
X106356200Y-130009000D02*
G01*
X105956200Y-130009000D01*
X105956200Y-122809000D01*
X106356200Y-122809000D01*
X106356200Y-130009000D01*
G37*
G36*
X88356200Y-130009000D02*
G01*
X87956200Y-130009000D01*
X87956200Y-122809000D01*
X88356200Y-122809000D01*
X88356200Y-130009000D01*
G37*
G36*
X73356200Y-130009000D02*
G01*
X72956200Y-130009000D01*
X72956200Y-122809000D01*
X73356200Y-122809000D01*
X73356200Y-130009000D01*
G37*
G36*
X91356200Y-130009000D02*
G01*
X90956200Y-130009000D01*
X90956200Y-122809000D01*
X91356200Y-122809000D01*
X91356200Y-130009000D01*
G37*
G36*
X70356200Y-130009000D02*
G01*
X69956200Y-130009000D01*
X69956200Y-122809000D01*
X70356200Y-122809000D01*
X70356200Y-130009000D01*
G37*
G36*
X101856200Y-130009000D02*
G01*
X101456200Y-130009000D01*
X101456200Y-122809000D01*
X101856200Y-122809000D01*
X101856200Y-130009000D01*
G37*
G36*
X97356200Y-130009000D02*
G01*
X96956200Y-130009000D01*
X96956200Y-122809000D01*
X97356200Y-122809000D01*
X97356200Y-130009000D01*
G37*
G36*
X92856200Y-130009000D02*
G01*
X92456200Y-130009000D01*
X92456200Y-122809000D01*
X92856200Y-122809000D01*
X92856200Y-130009000D01*
G37*
G36*
X114106200Y-130009000D02*
G01*
X113706200Y-130009000D01*
X113706200Y-122809000D01*
X114106200Y-122809000D01*
X114106200Y-130009000D01*
G37*
G36*
X98856200Y-130009000D02*
G01*
X98456200Y-130009000D01*
X98456200Y-122809000D01*
X98856200Y-122809000D01*
X98856200Y-130009000D01*
G37*
G36*
X94356200Y-130009000D02*
G01*
X93956200Y-130009000D01*
X93956200Y-122809000D01*
X94356200Y-122809000D01*
X94356200Y-130009000D01*
G37*
D10*
X66906200Y-122509000D03*
X68656200Y-122509000D03*
X70156200Y-122509000D03*
X71656200Y-122509000D03*
X73156200Y-122509000D03*
X74656200Y-122509000D03*
X76156200Y-122509000D03*
X77656200Y-122509000D03*
X79156200Y-122509000D03*
X80656200Y-122509000D03*
X82156200Y-122509000D03*
X83656200Y-122509000D03*
X85156200Y-122509000D03*
X86656200Y-122509000D03*
X88156200Y-122509000D03*
X89656200Y-122509000D03*
X91156200Y-122509000D03*
X92656200Y-122509000D03*
X94156200Y-122509000D03*
X95656200Y-122509000D03*
X97156200Y-122509000D03*
X98656200Y-122509000D03*
X100156200Y-122509000D03*
X101656200Y-122509000D03*
X103156200Y-122509000D03*
X104656200Y-122509000D03*
X106156200Y-122509000D03*
X107656200Y-122509000D03*
X109156200Y-122509000D03*
X110656200Y-122509000D03*
X112156200Y-122509000D03*
X113906200Y-122509000D03*
D11*
X68580000Y-93980000D03*
X68580000Y-88900000D03*
X68580000Y-104140000D03*
X68580000Y-99060000D03*
D12*
X101575000Y-110625000D03*
X113900000Y-117075000D03*
X111250000Y-103950000D03*
X99750000Y-112750000D03*
X66250000Y-77330000D03*
X112600000Y-91125000D03*
X65929100Y-104360900D03*
D13*
X113250000Y-119375000D03*
D12*
X86285000Y-80115000D03*
X113210000Y-80634800D03*
X91240000Y-80634800D03*
X88565200Y-80634800D03*
X91550000Y-109600500D03*
X97600000Y-110800000D03*
X72950000Y-118220000D03*
X69030000Y-82380000D03*
X78925800Y-119180000D03*
X76507700Y-104021900D03*
X91550000Y-97750000D03*
X93200000Y-98050000D03*
X76374900Y-105193400D03*
X94500000Y-99000000D03*
X80949100Y-101620000D03*
X97355160Y-120034084D03*
X98200000Y-119500000D03*
X95850000Y-119200000D03*
X99250000Y-115650000D03*
X74460000Y-120220000D03*
X73250000Y-119870000D03*
X73104200Y-114658500D03*
X70820300Y-111060000D03*
X87050000Y-107900000D03*
X70363500Y-109450000D03*
X89670548Y-107247848D03*
X93550000Y-105950000D03*
X71980200Y-88924900D03*
X72205900Y-87715100D03*
X97350000Y-104550000D03*
X94650000Y-103850500D03*
X72950900Y-86957600D03*
X93400000Y-102000000D03*
X101814700Y-94215900D03*
X73886300Y-90785800D03*
X82528300Y-110450000D03*
X98550000Y-109750000D03*
X100250000Y-109450000D03*
X91150000Y-101850000D03*
X104875000Y-103225000D03*
X86340000Y-117340000D03*
X73856400Y-98053200D03*
X96200000Y-93400000D03*
X71261600Y-94252200D03*
X68050000Y-119550000D03*
X93244622Y-90444622D03*
X73970100Y-86872000D03*
X103100000Y-101350000D03*
X76561200Y-118844400D03*
X101950000Y-106400000D03*
X98750000Y-106400000D03*
X74328800Y-89806300D03*
X98050000Y-93050000D03*
X85528700Y-84416300D03*
X81650000Y-85050000D03*
X103529800Y-96817400D03*
X78120000Y-95196800D03*
X104450000Y-100300000D03*
X79246500Y-95602900D03*
X102570600Y-96331300D03*
X77666300Y-92922700D03*
X103416000Y-95005000D03*
X80250000Y-91900000D03*
X105250000Y-101300000D03*
X81650000Y-93200000D03*
X106214900Y-96803100D03*
X81550000Y-90200000D03*
X107050000Y-115525000D03*
X82000800Y-86350000D03*
X80850000Y-87350000D03*
X106263100Y-114152200D03*
D14*
X99750000Y-112750000D02*
X100350000Y-112750000D01*
X66150000Y-104140000D02*
X68580000Y-104140000D01*
X65929100Y-104360900D02*
X66150000Y-104140000D01*
X101575000Y-111525000D02*
X101575000Y-110625000D01*
X100350000Y-112750000D02*
X101575000Y-111525000D01*
X66980000Y-92380000D02*
X68580000Y-93980000D01*
X66980000Y-82980000D02*
X66980000Y-92380000D01*
X69845000Y-80115000D02*
X66980000Y-82980000D01*
X86285000Y-80115000D02*
X69845000Y-80115000D01*
D15*
X113210000Y-80634800D02*
X91240000Y-80634800D01*
D14*
X69490000Y-78760000D02*
X66360000Y-81890000D01*
X66360000Y-81890000D02*
X66360000Y-96840000D01*
X86690400Y-78760000D02*
X69490000Y-78760000D01*
X88565200Y-80634800D02*
X86690400Y-78760000D01*
X66360000Y-96840000D02*
X68580000Y-99060000D01*
D16*
X96300000Y-109800000D02*
X96350000Y-109750000D01*
X73120000Y-118220000D02*
X79340000Y-112000000D01*
X96550000Y-109750000D02*
X97600000Y-110800000D01*
X72950000Y-118220000D02*
X73120000Y-118220000D01*
X79340000Y-112000000D02*
X83450000Y-112000000D01*
X83450000Y-112000000D02*
X85650000Y-109800000D01*
X96350000Y-109750000D02*
X96550000Y-109750000D01*
X85650000Y-109800000D02*
X96300000Y-109800000D01*
D14*
X68580000Y-82830000D02*
X68580000Y-88900000D01*
X69030000Y-82380000D02*
X68580000Y-82830000D01*
X92531263Y-119722300D02*
X93153563Y-119100000D01*
X97589950Y-121100000D02*
X93981991Y-121100000D01*
X100350000Y-115181372D02*
X100350000Y-118339950D01*
X100018628Y-114850000D02*
X100350000Y-115181372D01*
X94100000Y-119100000D02*
X98350000Y-114850000D01*
X100350000Y-118339950D02*
X97589950Y-121100000D01*
X92656200Y-121793800D02*
X92656200Y-122509000D01*
X93981991Y-121100000D02*
X93359691Y-121722300D01*
X93153563Y-119100000D02*
X94100000Y-119100000D01*
X93359691Y-121722300D02*
X92727700Y-121722300D01*
X92727700Y-121722300D02*
X92656200Y-121793800D01*
X79468100Y-119722300D02*
X92531263Y-119722300D01*
X78925800Y-119180000D02*
X79468100Y-119722300D01*
X98350000Y-114850000D02*
X100018628Y-114850000D01*
X91550000Y-97750000D02*
X91000000Y-97200000D01*
X83329600Y-97200000D02*
X76507700Y-104021900D01*
X91000000Y-97200000D02*
X83329600Y-97200000D01*
X83018300Y-98550000D02*
X76374900Y-105193400D01*
X92700000Y-98550000D02*
X83018300Y-98550000D01*
X93200000Y-98050000D02*
X92700000Y-98550000D01*
X94250000Y-99250000D02*
X83138400Y-99250000D01*
X94500000Y-99000000D02*
X94250000Y-99250000D01*
X83138400Y-99250000D02*
X80949100Y-101439300D01*
X80949100Y-101439300D02*
X80949100Y-101620000D01*
X80342900Y-121322300D02*
X79156200Y-122509000D01*
X93816306Y-120700000D02*
X93194006Y-121322300D01*
X93194006Y-121322300D02*
X80342900Y-121322300D01*
X96689244Y-120700000D02*
X93816306Y-120700000D01*
X97355160Y-120034084D02*
X96689244Y-120700000D01*
X98200000Y-119500000D02*
X97800000Y-119100000D01*
X97800000Y-119100000D02*
X97300000Y-119100000D01*
X97300000Y-119100000D02*
X96100000Y-120300000D01*
X93028321Y-120922300D02*
X79242900Y-120922300D01*
X79242900Y-120922300D02*
X77656200Y-122509000D01*
X93650621Y-120300000D02*
X93028321Y-120922300D01*
X96100000Y-120300000D02*
X93650621Y-120300000D01*
X95150000Y-119900000D02*
X93484935Y-119900000D01*
X93484935Y-119900000D02*
X92862635Y-120522300D01*
X95850000Y-119200000D02*
X95150000Y-119900000D01*
X77327700Y-120522300D02*
X76156200Y-121693800D01*
X76156200Y-121693800D02*
X76156200Y-122509000D01*
X92862635Y-120522300D02*
X77327700Y-120522300D01*
X94550000Y-119500000D02*
X93319249Y-119500000D01*
X92696949Y-120122300D02*
X76277700Y-120122300D01*
X98400000Y-115650000D02*
X94550000Y-119500000D01*
X93319249Y-119500000D02*
X92696949Y-120122300D01*
X99250000Y-115650000D02*
X98400000Y-115650000D01*
X76277700Y-120122300D02*
X74656200Y-121743800D01*
X74656200Y-121743800D02*
X74656200Y-122509000D01*
X97984314Y-114050000D02*
X100350000Y-114050000D01*
X98656200Y-121643800D02*
X98656200Y-122509000D01*
X93734314Y-118300000D02*
X97984314Y-114050000D01*
X92822192Y-118300000D02*
X93734314Y-118300000D01*
X74460000Y-120220000D02*
X74460000Y-119955650D01*
X100350000Y-114050000D02*
X101200000Y-114900000D01*
X92199891Y-118922300D02*
X92822192Y-118300000D01*
X101200000Y-119100000D02*
X98656200Y-121643800D01*
X81483300Y-117833300D02*
X82572300Y-118922300D01*
X82572300Y-118922300D02*
X92199891Y-118922300D01*
X76582350Y-117833300D02*
X81483300Y-117833300D01*
X101200000Y-114900000D02*
X101200000Y-119100000D01*
X74460000Y-119955650D02*
X76582350Y-117833300D01*
X81783300Y-117133300D02*
X83172300Y-118522300D01*
X76035150Y-117133300D02*
X81783300Y-117133300D01*
X73250000Y-119870000D02*
X73298450Y-119870000D01*
X101600000Y-114650000D02*
X101600000Y-119265686D01*
X92656507Y-117900000D02*
X93568629Y-117900000D01*
X100550000Y-113600000D02*
X101600000Y-114650000D01*
X92034206Y-118522300D02*
X92656507Y-117900000D01*
X101600000Y-119265686D02*
X100156200Y-120709486D01*
X97868629Y-113600000D02*
X100550000Y-113600000D01*
X83172300Y-118522300D02*
X92034206Y-118522300D01*
X100156200Y-120709486D02*
X100156200Y-122509000D01*
X93568629Y-117900000D02*
X97868629Y-113600000D01*
X73298450Y-119870000D02*
X76035150Y-117133300D01*
X102450000Y-120950000D02*
X101656200Y-121743800D01*
X101150000Y-108350000D02*
X102450000Y-109650000D01*
X73104200Y-114658500D02*
X73104200Y-110555800D01*
X73104200Y-110555800D02*
X74840000Y-108820000D01*
X101656200Y-121743800D02*
X101656200Y-122509000D01*
X74840000Y-108820000D02*
X90367006Y-108820000D01*
X90837006Y-108350000D02*
X101150000Y-108350000D01*
X102450000Y-109650000D02*
X102450000Y-120950000D01*
X90367006Y-108820000D02*
X90837006Y-108350000D01*
X103156200Y-109756200D02*
X103156200Y-122509000D01*
X90100000Y-108250000D02*
X90450000Y-107900000D01*
X90450000Y-107900000D02*
X101300000Y-107900000D01*
X89215685Y-108015685D02*
X89450000Y-108250000D01*
X89450000Y-108250000D02*
X90100000Y-108250000D01*
X73718629Y-108015685D02*
X89215685Y-108015685D01*
X72704200Y-109176100D02*
X72704200Y-109030114D01*
X72704200Y-109030114D02*
X73718629Y-108015685D01*
X70820300Y-111060000D02*
X72704200Y-109176100D01*
X101300000Y-107900000D02*
X103156200Y-109756200D01*
X89172700Y-106750000D02*
X89670548Y-107247848D01*
X103944800Y-109744800D02*
X103944800Y-118994656D01*
X70363500Y-109450000D02*
X70363500Y-109186500D01*
X71934315Y-107615685D02*
X83047057Y-107615685D01*
X70363500Y-109186500D02*
X71934315Y-107615685D01*
X89670548Y-107247848D02*
X89822700Y-107400000D01*
X101600000Y-107400000D02*
X103944800Y-109744800D01*
X104656200Y-119706057D02*
X104656200Y-122509000D01*
X89822700Y-107400000D02*
X101600000Y-107400000D01*
X83047057Y-107615685D02*
X83912742Y-106750000D01*
X83912742Y-106750000D02*
X89172700Y-106750000D01*
X103944800Y-118994656D02*
X104656200Y-119706057D01*
X97260050Y-105800000D02*
X97460050Y-105600000D01*
X104344800Y-118828971D02*
X106156200Y-120640372D01*
X74874300Y-106324300D02*
X74874300Y-99157900D01*
X83731370Y-105800000D02*
X82755507Y-106775863D01*
X106156200Y-120640372D02*
X106156200Y-122509000D01*
X74874300Y-99157900D02*
X75357300Y-98674900D01*
X74438000Y-88924900D02*
X71980200Y-88924900D01*
X93700000Y-105800000D02*
X97260050Y-105800000D01*
X82755507Y-106775863D02*
X75325863Y-106775863D01*
X75357300Y-98674900D02*
X75357300Y-89844200D01*
X75325863Y-106775863D02*
X74874300Y-106324300D01*
X75357300Y-89844200D02*
X74438000Y-88924900D01*
X93550000Y-105950000D02*
X93700000Y-105800000D01*
X104344800Y-106944800D02*
X104344800Y-118828971D01*
X103000000Y-105600000D02*
X104344800Y-106944800D01*
X93400000Y-105800000D02*
X83731370Y-105800000D01*
X97460050Y-105600000D02*
X103000000Y-105600000D01*
X93550000Y-105950000D02*
X93400000Y-105800000D01*
X74170900Y-88057300D02*
X72548100Y-88057300D01*
X75757600Y-98840700D02*
X75757600Y-89644000D01*
X75274300Y-105859886D02*
X75274300Y-99324000D01*
X82589822Y-106375863D02*
X75790277Y-106375863D01*
X103275000Y-104550000D02*
X104744800Y-106019800D01*
X75274300Y-99324000D02*
X75757600Y-98840700D01*
X75757600Y-89644000D02*
X74170900Y-88057300D01*
X75790277Y-106375863D02*
X75274300Y-105859886D01*
X97350000Y-104550000D02*
X103275000Y-104550000D01*
X107656200Y-121574686D02*
X107656200Y-122509000D01*
X84415685Y-104550000D02*
X82589822Y-106375863D01*
X72548100Y-88057300D02*
X72205900Y-87715100D01*
X104744800Y-118663286D02*
X107656200Y-121574686D01*
X97350000Y-104550000D02*
X84415685Y-104550000D01*
X104744800Y-106019800D02*
X104744800Y-118663286D01*
X109156200Y-121706200D02*
X109156200Y-122509000D01*
X94650000Y-103850500D02*
X94850500Y-103650000D01*
X74345700Y-87631600D02*
X73624900Y-87631600D01*
X84400000Y-104000000D02*
X82424137Y-105975863D01*
X75674600Y-105694500D02*
X75674600Y-99489800D01*
X105144800Y-105219800D02*
X105144800Y-117694800D01*
X105144800Y-117694800D02*
X109156200Y-121706200D01*
X94500500Y-104000000D02*
X84400000Y-104000000D01*
X73624900Y-87631600D02*
X72950900Y-86957600D01*
X94650000Y-103850500D02*
X94500500Y-104000000D01*
X75674600Y-99489800D02*
X76157900Y-99006500D01*
X75955963Y-105975863D02*
X75674600Y-105694500D01*
X76157900Y-89443800D02*
X74345700Y-87631600D01*
X82424137Y-105975863D02*
X75955963Y-105975863D01*
X94850500Y-103650000D02*
X103575000Y-103650000D01*
X76157900Y-99006500D02*
X76157900Y-89443800D01*
X103575000Y-103650000D02*
X105144800Y-105219800D01*
X106454900Y-101495100D02*
X106454900Y-98185800D01*
X93400000Y-101999500D02*
X93600500Y-102200000D01*
X103627700Y-94215900D02*
X101814700Y-94215900D01*
X105750000Y-102200000D02*
X106454900Y-101495100D01*
X93600500Y-102200000D02*
X105750000Y-102200000D01*
X106454900Y-98185800D02*
X104270400Y-96001300D01*
X104270300Y-95316700D02*
X104270300Y-94858500D01*
X104270400Y-96001300D02*
X104270400Y-95316700D01*
X104270300Y-94858500D02*
X103627700Y-94215900D01*
X104270400Y-95316700D02*
X104270300Y-95316700D01*
X82528300Y-109821700D02*
X82528300Y-110450000D01*
X73850000Y-115600000D02*
X74700000Y-114750000D01*
X71650000Y-122502800D02*
X71650000Y-115600000D01*
X90491491Y-109261200D02*
X83088800Y-109261200D01*
X74556700Y-98343300D02*
X72810000Y-100090000D01*
X69600000Y-108900000D02*
X69600000Y-111250000D01*
X70850000Y-114250000D02*
X71650000Y-115050000D01*
X73886300Y-90785800D02*
X74556700Y-91456200D01*
X82467519Y-110510781D02*
X82528300Y-110450000D01*
X71656200Y-122509000D02*
X71650000Y-122502800D01*
X74700000Y-110850000D02*
X75039219Y-110510781D01*
X83088800Y-109261200D02*
X82528300Y-109821700D01*
X71650000Y-115050000D02*
X71650000Y-115550000D01*
X70850000Y-112500000D02*
X70850000Y-114250000D01*
X71650000Y-115600000D02*
X73850000Y-115600000D01*
X74700000Y-114750000D02*
X74700000Y-110850000D01*
X90952691Y-108800000D02*
X90491491Y-109261200D01*
X72810000Y-105690000D02*
X69600000Y-108900000D01*
X74556700Y-91456200D02*
X74556700Y-98343300D01*
X98550000Y-109750000D02*
X97600000Y-108800000D01*
X75039219Y-110510781D02*
X82467519Y-110510781D01*
X72810000Y-100090000D02*
X72810000Y-105690000D01*
X97600000Y-108800000D02*
X90952691Y-108800000D01*
X69600000Y-111250000D02*
X70850000Y-112500000D01*
X86340000Y-117340000D02*
X86000000Y-117000000D01*
X95150000Y-110400000D02*
X96550000Y-111800000D01*
X87100000Y-110400000D02*
X95150000Y-110400000D01*
X86000000Y-111500000D02*
X87100000Y-110400000D01*
X99750000Y-111800000D02*
X100250000Y-111300000D01*
X92200000Y-102900000D02*
X91150000Y-101850000D01*
X100250000Y-111300000D02*
X100250000Y-109450000D01*
X86000000Y-117000000D02*
X86000000Y-111500000D01*
X104550000Y-102900000D02*
X92200000Y-102900000D01*
X96550000Y-111800000D02*
X99750000Y-111800000D01*
X104875000Y-103225000D02*
X104550000Y-102900000D01*
X69110000Y-108270000D02*
X69110000Y-111810000D01*
X73856400Y-98477914D02*
X72170000Y-100164314D01*
X72170000Y-100164314D02*
X72170000Y-105210000D01*
X70250000Y-122415200D02*
X70156200Y-122509000D01*
X72170000Y-105210000D02*
X69110000Y-108270000D01*
X69110000Y-111810000D02*
X70250000Y-112950000D01*
X70250000Y-112950000D02*
X70250000Y-122415200D01*
X73856400Y-98053200D02*
X73856400Y-98477914D01*
X71261600Y-87612200D02*
X71261600Y-94252200D01*
X72704300Y-86169500D02*
X71261600Y-87612200D01*
X71110000Y-94403800D02*
X71110000Y-104990000D01*
X77139300Y-88650800D02*
X74658000Y-86169500D01*
X68640000Y-107460000D02*
X68640000Y-119150050D01*
X71261600Y-94252200D02*
X71110000Y-94403800D01*
X68750000Y-122415200D02*
X68656200Y-122509000D01*
X96131800Y-93331800D02*
X86231800Y-93331800D01*
X68640000Y-119150050D02*
X68750000Y-119260050D01*
X68750000Y-119260050D02*
X68750000Y-122415200D01*
X86231800Y-93331800D02*
X81550800Y-88650800D01*
X96200000Y-93400000D02*
X96131800Y-93331800D01*
X74658000Y-86169500D02*
X72704300Y-86169500D01*
X71110000Y-104990000D02*
X68640000Y-107460000D01*
X81550800Y-88650800D02*
X77139300Y-88650800D01*
X68050000Y-107260000D02*
X68050000Y-119550000D01*
X72533000Y-85769100D02*
X70290000Y-88012100D01*
X91389244Y-92300000D02*
X86600000Y-92300000D01*
X82550400Y-88250400D02*
X78718400Y-88250400D01*
X70290000Y-88012100D02*
X70290000Y-105020000D01*
X70290000Y-105020000D02*
X68050000Y-107260000D01*
X78718400Y-88250400D02*
X76237100Y-85769100D01*
X76237100Y-85769100D02*
X72533000Y-85769100D01*
X93244622Y-90444622D02*
X91389244Y-92300000D01*
X86600000Y-92300000D02*
X82550400Y-88250400D01*
X103100000Y-101350000D02*
X101373500Y-99623500D01*
X76656600Y-94754300D02*
X76656600Y-89338700D01*
X74189900Y-86872000D02*
X73970100Y-86872000D01*
X76656600Y-89338700D02*
X74189900Y-86872000D01*
X78652300Y-96750000D02*
X76656600Y-94754300D01*
X94067000Y-96750000D02*
X78652300Y-96750000D01*
X96940500Y-99623500D02*
X94067000Y-96750000D01*
X101373500Y-99623500D02*
X96940500Y-99623500D01*
X95656200Y-121893800D02*
X96050000Y-121500000D01*
X97950000Y-121500000D02*
X100800000Y-118650000D01*
X81025600Y-118275600D02*
X77130000Y-118275600D01*
X95656200Y-122509000D02*
X95656200Y-121893800D01*
X100800000Y-115065686D02*
X100184314Y-114450000D01*
X82072300Y-119322300D02*
X81025600Y-118275600D01*
X100184314Y-114450000D02*
X98150000Y-114450000D01*
X92987877Y-118700000D02*
X92365577Y-119322300D01*
X96050000Y-121500000D02*
X97950000Y-121500000D01*
X98150000Y-114450000D02*
X93900000Y-118700000D01*
X77130000Y-118275600D02*
X76561200Y-118844400D01*
X100800000Y-118650000D02*
X100800000Y-115065686D01*
X93900000Y-118700000D02*
X92987877Y-118700000D01*
X92365577Y-119322300D02*
X82072300Y-119322300D01*
X74473700Y-106980771D02*
X74473700Y-98992400D01*
X98750000Y-106400000D02*
X98250000Y-106900000D01*
X74708614Y-107215685D02*
X74473700Y-106980771D01*
X82881371Y-107215685D02*
X74708614Y-107215685D01*
X91150000Y-106900000D02*
X90600000Y-106350000D01*
X98250000Y-106900000D02*
X91150000Y-106900000D01*
X74957000Y-90434500D02*
X74328800Y-89806300D01*
X74473700Y-98992400D02*
X74957000Y-98509100D01*
X74957000Y-98509100D02*
X74957000Y-90434500D01*
X98750000Y-106400000D02*
X101950000Y-106400000D01*
X90600000Y-106350000D02*
X83747056Y-106350000D01*
X83747056Y-106350000D02*
X82881371Y-107215685D01*
X105544800Y-108280200D02*
X105544800Y-116644800D01*
X98115300Y-93115300D02*
X103659300Y-93115300D01*
X106989800Y-96445800D02*
X106989800Y-106835200D01*
X98050000Y-93050000D02*
X98115300Y-93115300D01*
X105544800Y-116644800D02*
X110656200Y-121756200D01*
X103659300Y-93115300D02*
X106989800Y-96445800D01*
X110656200Y-121756200D02*
X110656200Y-122509000D01*
X106989800Y-106835200D02*
X105544800Y-108280200D01*
X84895000Y-85050000D02*
X85528700Y-84416300D01*
X81650000Y-85050000D02*
X84895000Y-85050000D01*
X96765400Y-97031600D02*
X103315600Y-97031600D01*
X81613700Y-94895500D02*
X82521600Y-95803400D01*
X78421300Y-94895500D02*
X81613700Y-94895500D01*
X103315600Y-97031600D02*
X103529800Y-96817400D01*
X78120000Y-95196800D02*
X78421300Y-94895500D01*
X95537200Y-95803400D02*
X96765400Y-97031600D01*
X82521600Y-95803400D02*
X95537200Y-95803400D01*
X96188286Y-98305600D02*
X94086086Y-96203400D01*
X104450000Y-100300000D02*
X104400000Y-100300000D01*
X79847000Y-96203400D02*
X79246500Y-95602900D01*
X102405600Y-98305600D02*
X96188286Y-98305600D01*
X94086086Y-96203400D02*
X79847000Y-96203400D01*
X104400000Y-100300000D02*
X102405600Y-98305600D01*
X101764200Y-96331300D02*
X102570600Y-96331300D01*
X78693600Y-93950000D02*
X81800000Y-93950000D01*
X81800000Y-93950000D02*
X83253100Y-95403100D01*
X77666300Y-92922700D02*
X78693600Y-93950000D01*
X83253100Y-95403100D02*
X100836000Y-95403100D01*
X100836000Y-95403100D02*
X101764200Y-96331300D01*
X80250000Y-91900000D02*
X82300000Y-91900000D01*
X82300000Y-91900000D02*
X85002500Y-94602500D01*
X85002500Y-94602500D02*
X101167600Y-94602500D01*
X101167600Y-94602500D02*
X101570100Y-95005000D01*
X101570100Y-95005000D02*
X103416000Y-95005000D01*
X105950000Y-100600000D02*
X105950000Y-98247000D01*
X103420000Y-95717000D02*
X102967300Y-95717000D01*
X105950000Y-98247000D02*
X103420000Y-95717000D01*
X105250000Y-101300000D02*
X105950000Y-100600000D01*
X84081700Y-95002800D02*
X82278900Y-93200000D01*
X101515700Y-95516700D02*
X101001800Y-95002800D01*
X102767000Y-95516700D02*
X101515700Y-95516700D01*
X102967300Y-95717000D02*
X102767000Y-95516700D01*
X82278900Y-93200000D02*
X81650000Y-93200000D01*
X101001800Y-95002800D02*
X84081700Y-95002800D01*
X100784400Y-93515600D02*
X103493500Y-93515600D01*
X103493500Y-93515600D02*
X106214900Y-96237000D01*
X85650000Y-94150000D02*
X100150000Y-94150000D01*
X81700000Y-90200000D02*
X85650000Y-94150000D01*
X100150000Y-94150000D02*
X100784400Y-93515600D01*
X81550000Y-90200000D02*
X81700000Y-90200000D01*
X106214900Y-96237000D02*
X106214900Y-96803100D01*
X82656600Y-87005800D02*
X82000800Y-86350000D01*
X107050000Y-115525000D02*
X107872500Y-114702500D01*
X98676200Y-87000000D02*
X83510686Y-87000000D01*
X83504885Y-87005800D02*
X82656600Y-87005800D01*
X83510686Y-87000000D02*
X83504885Y-87005800D01*
X107872500Y-96196300D02*
X98676200Y-87000000D01*
X107872500Y-114702500D02*
X107872500Y-96196300D01*
X87300000Y-91550000D02*
X91150000Y-91550000D01*
X80905800Y-87405800D02*
X83155800Y-87405800D01*
X91150000Y-91550000D02*
X94600000Y-88100000D01*
X94600000Y-88100000D02*
X99210100Y-88100000D01*
X83155800Y-87405800D02*
X87300000Y-91550000D01*
X99210100Y-88100000D02*
X107463400Y-96353300D01*
X107463400Y-96353300D02*
X107463400Y-112951900D01*
X107463400Y-112951900D02*
X106263100Y-114152200D01*
X80850000Y-87350000D02*
X80905800Y-87405800D01*
G04 #@! TA.AperFunction,Conductor*
G36*
X111543841Y-70076502D02*
G01*
X111590334Y-70130158D01*
X111601720Y-70182500D01*
X111601720Y-72464524D01*
X111599299Y-72489103D01*
X111596734Y-72502000D01*
X111601720Y-72527067D01*
X111616486Y-72601301D01*
X111672736Y-72685484D01*
X111756919Y-72741734D01*
X111856220Y-72761486D01*
X111869117Y-72758921D01*
X111893696Y-72756500D01*
X115525720Y-72756500D01*
X115593841Y-72776502D01*
X115640334Y-72830158D01*
X115651720Y-72882500D01*
X115651720Y-121006600D01*
X115631718Y-121074721D01*
X115578062Y-121121214D01*
X115525720Y-121132600D01*
X114670840Y-121132600D01*
X114670840Y-121650760D01*
X114767788Y-121600564D01*
X114837477Y-121587006D01*
X114903434Y-121613277D01*
X114944717Y-121671036D01*
X114951720Y-121712456D01*
X114951720Y-122708400D01*
X114931718Y-122776521D01*
X114878062Y-122823014D01*
X114825720Y-122834400D01*
X114474144Y-122834400D01*
X114406023Y-122814398D01*
X114359530Y-122760742D01*
X114350565Y-122732980D01*
X114348355Y-122721869D01*
X114348355Y-122721868D01*
X114345934Y-122709699D01*
X114289684Y-122625516D01*
X114205501Y-122569266D01*
X114131267Y-122554500D01*
X114118372Y-122551935D01*
X114106200Y-122549514D01*
X114093303Y-122552079D01*
X114068724Y-122554500D01*
X113743676Y-122554500D01*
X113719097Y-122552079D01*
X113706200Y-122549514D01*
X113694028Y-122551935D01*
X113681133Y-122554500D01*
X113606899Y-122569266D01*
X113522716Y-122625516D01*
X113515823Y-122635832D01*
X113489998Y-122674482D01*
X113466466Y-122709699D01*
X113464045Y-122721869D01*
X113464045Y-122721870D01*
X113461835Y-122732982D01*
X113428927Y-122795891D01*
X113367232Y-122831023D01*
X113338256Y-122834400D01*
X112914836Y-122834400D01*
X112846715Y-122814398D01*
X112800222Y-122760742D01*
X112790118Y-122690468D01*
X112791606Y-122683212D01*
X112793042Y-122679641D01*
X112796976Y-122652003D01*
X112814781Y-122526891D01*
X112814781Y-122526888D01*
X112815362Y-122522807D01*
X112815507Y-122509000D01*
X112796476Y-122351733D01*
X112740480Y-122203546D01*
X112650753Y-122072992D01*
X112644512Y-122067431D01*
X112611783Y-122038271D01*
X112532475Y-121967611D01*
X112525089Y-121963700D01*
X112459818Y-121929141D01*
X112392474Y-121893484D01*
X112238833Y-121854892D01*
X112231234Y-121854852D01*
X112231233Y-121854852D01*
X112165381Y-121854507D01*
X112080421Y-121854062D01*
X112073041Y-121855834D01*
X112073039Y-121855834D01*
X111933763Y-121889271D01*
X111933760Y-121889272D01*
X111926384Y-121891043D01*
X111785614Y-121963700D01*
X111666239Y-122067838D01*
X111575150Y-122197444D01*
X111572390Y-122204524D01*
X111572388Y-122204527D01*
X111523260Y-122330535D01*
X111479880Y-122386737D01*
X111413001Y-122410564D01*
X111343857Y-122394451D01*
X111294401Y-122343513D01*
X111288001Y-122329305D01*
X111243163Y-122210647D01*
X111240480Y-122203546D01*
X111150753Y-122072992D01*
X111144512Y-122067431D01*
X111067068Y-121998432D01*
X111052881Y-121985792D01*
X111015326Y-121925542D01*
X111010700Y-121891715D01*
X111010700Y-121807453D01*
X111012804Y-121787683D01*
X111013010Y-121783315D01*
X111015203Y-121773130D01*
X111011573Y-121742460D01*
X111011258Y-121737117D01*
X111011128Y-121737128D01*
X111010700Y-121731948D01*
X111010700Y-121726749D01*
X111009847Y-121721625D01*
X111009846Y-121721612D01*
X111007773Y-121709159D01*
X111006936Y-121703284D01*
X111002555Y-121666271D01*
X111001331Y-121655930D01*
X110997630Y-121648222D01*
X110996225Y-121639783D01*
X110973571Y-121597799D01*
X110970890Y-121592536D01*
X110960384Y-121570657D01*
X110950245Y-121549542D01*
X110946889Y-121545550D01*
X110944942Y-121543603D01*
X110943452Y-121541978D01*
X110943219Y-121541546D01*
X110943255Y-121541513D01*
X110943116Y-121541355D01*
X110940183Y-121535920D01*
X110928060Y-121524713D01*
X110903319Y-121501843D01*
X110899753Y-121498414D01*
X108423434Y-119022095D01*
X105936205Y-116534867D01*
X105902179Y-116472555D01*
X105899300Y-116445772D01*
X105899300Y-114896760D01*
X105919302Y-114828639D01*
X105972958Y-114782146D01*
X106043232Y-114772042D01*
X106057273Y-114774884D01*
X106166271Y-114803479D01*
X106166275Y-114803480D01*
X106173622Y-114805407D01*
X106257577Y-114806726D01*
X106324419Y-114807776D01*
X106324422Y-114807776D01*
X106332016Y-114807895D01*
X106486432Y-114772529D01*
X106556842Y-114737117D01*
X106621172Y-114704763D01*
X106621175Y-114704761D01*
X106627955Y-114701351D01*
X106633726Y-114696422D01*
X106633729Y-114696420D01*
X106742636Y-114603404D01*
X106742636Y-114603403D01*
X106748414Y-114598469D01*
X106840855Y-114469824D01*
X106899942Y-114322841D01*
X106913333Y-114228751D01*
X106921681Y-114170091D01*
X106921681Y-114170088D01*
X106922262Y-114166007D01*
X106922407Y-114152200D01*
X106921912Y-114148106D01*
X106921911Y-114148095D01*
X106912722Y-114072157D01*
X106924395Y-114002127D01*
X106948714Y-113967925D01*
X107302905Y-113613734D01*
X107365217Y-113579708D01*
X107436032Y-113584773D01*
X107492868Y-113627320D01*
X107517679Y-113693840D01*
X107518000Y-113702829D01*
X107518000Y-114503471D01*
X107497998Y-114571592D01*
X107481095Y-114592566D01*
X107237734Y-114835927D01*
X107175422Y-114869953D01*
X107135871Y-114871705D01*
X107132633Y-114870892D01*
X107125040Y-114870852D01*
X107125038Y-114870852D01*
X107054326Y-114870482D01*
X106974221Y-114870062D01*
X106966841Y-114871834D01*
X106966839Y-114871834D01*
X106827563Y-114905271D01*
X106827560Y-114905272D01*
X106820184Y-114907043D01*
X106679414Y-114979700D01*
X106560039Y-115083838D01*
X106468950Y-115213444D01*
X106456452Y-115245500D01*
X106417836Y-115344546D01*
X106411406Y-115361037D01*
X106390729Y-115518096D01*
X106396657Y-115571786D01*
X106406293Y-115659067D01*
X106408113Y-115675553D01*
X106410723Y-115682684D01*
X106410723Y-115682686D01*
X106414148Y-115692044D01*
X106462553Y-115824319D01*
X106466789Y-115830622D01*
X106466789Y-115830623D01*
X106544141Y-115945734D01*
X106550908Y-115955805D01*
X106556527Y-115960918D01*
X106556528Y-115960919D01*
X106644982Y-116041405D01*
X106668076Y-116062419D01*
X106807293Y-116138008D01*
X106960522Y-116178207D01*
X107044477Y-116179526D01*
X107111319Y-116180576D01*
X107111322Y-116180576D01*
X107118916Y-116180695D01*
X107273332Y-116145329D01*
X107391461Y-116085917D01*
X107408072Y-116077563D01*
X107408075Y-116077561D01*
X107414855Y-116074151D01*
X107420626Y-116069222D01*
X107420629Y-116069220D01*
X107529536Y-115976204D01*
X107529536Y-115976203D01*
X107535314Y-115971269D01*
X107627755Y-115842624D01*
X107686842Y-115695641D01*
X107693524Y-115648688D01*
X107708581Y-115542891D01*
X107708581Y-115542888D01*
X107709162Y-115538807D01*
X107709307Y-115525000D01*
X107708812Y-115520906D01*
X107708811Y-115520895D01*
X107699622Y-115444957D01*
X107711295Y-115374927D01*
X107735614Y-115340725D01*
X108086923Y-114989416D01*
X108102409Y-114976908D01*
X108105634Y-114973974D01*
X108114382Y-114968325D01*
X108133503Y-114944070D01*
X108137059Y-114940069D01*
X108136959Y-114939984D01*
X108140312Y-114936027D01*
X108143995Y-114932344D01*
X108148975Y-114925376D01*
X108154366Y-114917831D01*
X108157931Y-114913083D01*
X108180998Y-114883823D01*
X108180999Y-114883821D01*
X108187446Y-114875643D01*
X108190280Y-114867573D01*
X108195253Y-114860614D01*
X108200419Y-114843342D01*
X108208917Y-114814924D01*
X108210752Y-114809277D01*
X108223923Y-114771772D01*
X108226550Y-114764292D01*
X108227000Y-114759096D01*
X108227000Y-114756389D01*
X108227097Y-114754135D01*
X108227240Y-114753659D01*
X108227286Y-114753661D01*
X108227299Y-114753462D01*
X108229068Y-114747545D01*
X108227097Y-114697376D01*
X108227000Y-114692430D01*
X108227000Y-112670594D01*
X112701445Y-112670594D01*
X112702889Y-112700000D01*
X112707209Y-112729122D01*
X112714362Y-112757680D01*
X112715403Y-112760590D01*
X112715406Y-112760599D01*
X112723241Y-112782494D01*
X112724281Y-112785400D01*
X112725603Y-112788195D01*
X112733580Y-112805061D01*
X112736868Y-112812014D01*
X112752004Y-112837266D01*
X112769541Y-112860912D01*
X112789312Y-112882727D01*
X112811127Y-112902498D01*
X112834773Y-112920035D01*
X112860025Y-112935171D01*
X112886639Y-112947758D01*
X112889542Y-112948797D01*
X112889545Y-112948798D01*
X112911440Y-112956633D01*
X112911449Y-112956636D01*
X112914359Y-112957677D01*
X112928638Y-112961253D01*
X112939905Y-112964076D01*
X112939913Y-112964078D01*
X112942917Y-112964830D01*
X112972039Y-112969150D01*
X113001445Y-112970594D01*
X113030850Y-112969150D01*
X113059972Y-112964830D01*
X113062976Y-112964078D01*
X113062984Y-112964076D01*
X113074251Y-112961254D01*
X113088530Y-112957677D01*
X113091440Y-112956636D01*
X113091449Y-112956633D01*
X113113344Y-112948798D01*
X113113347Y-112948797D01*
X113116250Y-112947758D01*
X113142864Y-112935171D01*
X113168116Y-112920035D01*
X113191762Y-112902498D01*
X113213577Y-112882727D01*
X113233348Y-112860912D01*
X113250885Y-112837266D01*
X113266021Y-112812014D01*
X113269310Y-112805061D01*
X113277286Y-112788195D01*
X113278608Y-112785400D01*
X113279648Y-112782494D01*
X113287483Y-112760599D01*
X113287486Y-112760590D01*
X113288527Y-112757680D01*
X113295680Y-112729122D01*
X113300000Y-112700000D01*
X113301445Y-112670594D01*
X113300000Y-112641189D01*
X113295680Y-112612067D01*
X113293138Y-112601916D01*
X113290830Y-112592704D01*
X113288527Y-112583509D01*
X113287486Y-112580599D01*
X113287483Y-112580590D01*
X113279648Y-112558695D01*
X113279647Y-112558692D01*
X113278608Y-112555789D01*
X113266021Y-112529175D01*
X113250885Y-112503923D01*
X113233348Y-112480277D01*
X113213577Y-112458462D01*
X113191762Y-112438691D01*
X113168116Y-112421154D01*
X113142864Y-112406018D01*
X113116250Y-112393431D01*
X113113344Y-112392391D01*
X113091449Y-112384556D01*
X113091440Y-112384553D01*
X113088530Y-112383512D01*
X113074251Y-112379936D01*
X113062984Y-112377113D01*
X113062976Y-112377111D01*
X113059972Y-112376359D01*
X113030850Y-112372039D01*
X113027767Y-112371888D01*
X113027762Y-112371887D01*
X113004538Y-112370746D01*
X113001445Y-112370594D01*
X112998352Y-112370746D01*
X112975127Y-112371887D01*
X112975122Y-112371888D01*
X112972039Y-112372039D01*
X112942917Y-112376359D01*
X112939913Y-112377111D01*
X112939905Y-112377113D01*
X112928638Y-112379936D01*
X112914359Y-112383512D01*
X112911449Y-112384553D01*
X112911440Y-112384556D01*
X112889545Y-112392391D01*
X112886639Y-112393431D01*
X112860025Y-112406018D01*
X112834773Y-112421154D01*
X112811127Y-112438691D01*
X112789312Y-112458462D01*
X112769541Y-112480277D01*
X112752004Y-112503923D01*
X112736868Y-112529175D01*
X112724281Y-112555789D01*
X112723242Y-112558692D01*
X112723241Y-112558695D01*
X112715406Y-112580590D01*
X112715403Y-112580599D01*
X112714362Y-112583509D01*
X112712059Y-112592704D01*
X112709752Y-112601916D01*
X112707209Y-112612067D01*
X112702889Y-112641189D01*
X112701445Y-112670594D01*
X108227000Y-112670594D01*
X108227000Y-111558527D01*
X112696918Y-111558527D01*
X112698362Y-111587933D01*
X112702682Y-111617055D01*
X112703434Y-111620059D01*
X112703436Y-111620067D01*
X112704619Y-111624790D01*
X112709835Y-111645613D01*
X112710876Y-111648523D01*
X112710879Y-111648532D01*
X112718714Y-111670427D01*
X112719754Y-111673333D01*
X112732341Y-111699947D01*
X112747477Y-111725199D01*
X112765014Y-111748845D01*
X112784785Y-111770660D01*
X112806600Y-111790431D01*
X112830246Y-111807968D01*
X112855498Y-111823104D01*
X112882112Y-111835691D01*
X112885015Y-111836730D01*
X112885018Y-111836731D01*
X112906913Y-111844566D01*
X112906922Y-111844569D01*
X112909832Y-111845610D01*
X112924111Y-111849187D01*
X112935378Y-111852009D01*
X112935386Y-111852011D01*
X112938390Y-111852763D01*
X112967512Y-111857083D01*
X112996918Y-111858527D01*
X113026323Y-111857083D01*
X113055445Y-111852763D01*
X113058449Y-111852011D01*
X113058457Y-111852009D01*
X113069724Y-111849187D01*
X113084003Y-111845610D01*
X113086913Y-111844569D01*
X113086922Y-111844566D01*
X113108817Y-111836731D01*
X113108820Y-111836730D01*
X113111723Y-111835691D01*
X113138337Y-111823104D01*
X113163589Y-111807968D01*
X113187235Y-111790431D01*
X113209050Y-111770660D01*
X113228821Y-111748845D01*
X113246358Y-111725199D01*
X113261494Y-111699947D01*
X113274081Y-111673333D01*
X113275121Y-111670427D01*
X113282956Y-111648532D01*
X113282959Y-111648523D01*
X113284000Y-111645613D01*
X113289216Y-111624790D01*
X113290399Y-111620067D01*
X113290401Y-111620059D01*
X113291153Y-111617055D01*
X113295473Y-111587933D01*
X113296918Y-111558527D01*
X113295473Y-111529122D01*
X113291153Y-111500000D01*
X113284000Y-111471442D01*
X113282959Y-111468532D01*
X113282956Y-111468523D01*
X113275121Y-111446628D01*
X113275120Y-111446625D01*
X113274081Y-111443722D01*
X113265462Y-111425498D01*
X113262817Y-111419905D01*
X113262816Y-111419902D01*
X113261494Y-111417108D01*
X113246358Y-111391856D01*
X113228821Y-111368210D01*
X113209050Y-111346395D01*
X113187235Y-111326624D01*
X113163589Y-111309087D01*
X113138337Y-111293951D01*
X113135073Y-111292407D01*
X113114518Y-111282686D01*
X113111723Y-111281364D01*
X113108817Y-111280324D01*
X113086922Y-111272489D01*
X113086913Y-111272486D01*
X113084003Y-111271445D01*
X113069724Y-111267868D01*
X113058457Y-111265046D01*
X113058449Y-111265044D01*
X113055445Y-111264292D01*
X113026323Y-111259972D01*
X113023240Y-111259821D01*
X113023235Y-111259820D01*
X113000011Y-111258679D01*
X112996918Y-111258527D01*
X112993825Y-111258679D01*
X112970600Y-111259820D01*
X112970595Y-111259821D01*
X112967512Y-111259972D01*
X112938390Y-111264292D01*
X112935386Y-111265044D01*
X112935378Y-111265046D01*
X112924111Y-111267868D01*
X112909832Y-111271445D01*
X112906922Y-111272486D01*
X112906913Y-111272489D01*
X112885018Y-111280324D01*
X112882112Y-111281364D01*
X112879317Y-111282686D01*
X112858763Y-111292407D01*
X112855498Y-111293951D01*
X112830246Y-111309087D01*
X112806600Y-111326624D01*
X112784785Y-111346395D01*
X112765014Y-111368210D01*
X112747477Y-111391856D01*
X112732341Y-111417108D01*
X112731019Y-111419902D01*
X112731018Y-111419905D01*
X112728373Y-111425498D01*
X112719754Y-111443722D01*
X112718715Y-111446625D01*
X112718714Y-111446628D01*
X112710879Y-111468523D01*
X112710876Y-111468532D01*
X112709835Y-111471442D01*
X112702682Y-111500000D01*
X112698362Y-111529122D01*
X112696918Y-111558527D01*
X108227000Y-111558527D01*
X108227000Y-96247557D01*
X108229106Y-96227763D01*
X108229311Y-96223410D01*
X108231503Y-96213230D01*
X108227873Y-96182560D01*
X108227558Y-96177217D01*
X108227428Y-96177228D01*
X108227000Y-96172048D01*
X108227000Y-96166849D01*
X108226147Y-96161725D01*
X108226146Y-96161712D01*
X108224073Y-96149259D01*
X108223236Y-96143384D01*
X108218855Y-96106371D01*
X108217631Y-96096030D01*
X108213930Y-96088322D01*
X108212525Y-96079883D01*
X108189871Y-96037899D01*
X108187190Y-96032636D01*
X108169975Y-95996786D01*
X108166545Y-95989642D01*
X108163189Y-95985650D01*
X108161242Y-95983703D01*
X108159752Y-95982078D01*
X108159519Y-95981646D01*
X108159555Y-95981613D01*
X108159416Y-95981455D01*
X108156483Y-95976020D01*
X108119619Y-95941943D01*
X108116053Y-95938514D01*
X103541203Y-91363664D01*
X98963118Y-86785580D01*
X98950613Y-86770098D01*
X98947677Y-86766871D01*
X98942025Y-86758118D01*
X98917762Y-86738991D01*
X98913767Y-86735441D01*
X98913683Y-86735540D01*
X98909720Y-86732182D01*
X98906044Y-86728506D01*
X98898219Y-86722914D01*
X98891548Y-86718146D01*
X98886805Y-86714585D01*
X98857525Y-86691503D01*
X98857521Y-86691501D01*
X98849343Y-86685054D01*
X98841275Y-86682221D01*
X98834315Y-86677247D01*
X98788614Y-86663580D01*
X98782965Y-86661744D01*
X98767737Y-86656396D01*
X98737992Y-86645950D01*
X98732796Y-86645500D01*
X98730091Y-86645500D01*
X98727835Y-86645403D01*
X98727359Y-86645260D01*
X98727361Y-86645214D01*
X98727162Y-86645201D01*
X98721245Y-86643432D01*
X98671611Y-86645382D01*
X98671076Y-86645403D01*
X98666130Y-86645500D01*
X83561958Y-86645500D01*
X83542241Y-86643401D01*
X83537833Y-86643193D01*
X83527647Y-86640999D01*
X83497994Y-86644506D01*
X83496962Y-86644628D01*
X83491599Y-86644944D01*
X83491610Y-86645072D01*
X83486429Y-86645500D01*
X83481235Y-86645500D01*
X83476115Y-86646352D01*
X83476104Y-86646353D01*
X83463652Y-86648425D01*
X83457778Y-86649261D01*
X83447925Y-86650427D01*
X83433118Y-86651300D01*
X82855629Y-86651300D01*
X82787508Y-86631298D01*
X82766534Y-86614395D01*
X82686538Y-86534399D01*
X82652512Y-86472087D01*
X82650890Y-86427551D01*
X82659381Y-86367891D01*
X82659381Y-86367888D01*
X82659962Y-86363807D01*
X82660107Y-86350000D01*
X82641076Y-86192733D01*
X82585080Y-86044546D01*
X82495353Y-85913992D01*
X82377075Y-85808611D01*
X82369689Y-85804700D01*
X82243788Y-85738039D01*
X82243789Y-85738039D01*
X82237074Y-85734484D01*
X82179678Y-85720067D01*
X82118483Y-85684072D01*
X82086462Y-85620706D01*
X82093783Y-85550088D01*
X82124824Y-85507191D01*
X82124394Y-85506796D01*
X82127756Y-85503140D01*
X82128543Y-85502052D01*
X82129536Y-85501204D01*
X82129536Y-85501203D01*
X82135314Y-85496269D01*
X82163552Y-85456971D01*
X82219543Y-85413326D01*
X82265872Y-85404500D01*
X84843743Y-85404500D01*
X84863537Y-85406606D01*
X84867890Y-85406811D01*
X84878070Y-85409003D01*
X84908740Y-85405373D01*
X84914083Y-85405058D01*
X84914072Y-85404928D01*
X84919252Y-85404500D01*
X84924451Y-85404500D01*
X84929575Y-85403647D01*
X84929588Y-85403646D01*
X84942041Y-85401573D01*
X84947916Y-85400736D01*
X84984929Y-85396355D01*
X84995270Y-85395131D01*
X85002978Y-85391430D01*
X85011417Y-85390025D01*
X85053401Y-85367371D01*
X85058664Y-85364690D01*
X85077546Y-85355623D01*
X85101658Y-85344045D01*
X85105650Y-85340689D01*
X85107597Y-85338742D01*
X85109222Y-85337252D01*
X85109654Y-85337019D01*
X85109687Y-85337055D01*
X85109845Y-85336916D01*
X85115280Y-85333983D01*
X85149357Y-85297119D01*
X85152786Y-85293553D01*
X85340931Y-85105408D01*
X85403243Y-85071382D01*
X85439215Y-85069976D01*
X85439222Y-85069507D01*
X85590019Y-85071876D01*
X85590022Y-85071876D01*
X85597616Y-85071995D01*
X85752032Y-85036629D01*
X85822442Y-85001217D01*
X85886772Y-84968863D01*
X85886775Y-84968861D01*
X85893555Y-84965451D01*
X85899326Y-84960522D01*
X85899329Y-84960520D01*
X86008236Y-84867504D01*
X86008236Y-84867503D01*
X86014014Y-84862569D01*
X86106455Y-84733924D01*
X86165542Y-84586941D01*
X86171665Y-84543915D01*
X86187281Y-84434191D01*
X86187281Y-84434188D01*
X86187862Y-84430107D01*
X86188007Y-84416300D01*
X86168976Y-84259033D01*
X86112980Y-84110846D01*
X86023253Y-83980292D01*
X85904975Y-83874911D01*
X85897589Y-83871000D01*
X85771688Y-83804339D01*
X85771689Y-83804339D01*
X85764974Y-83800784D01*
X85611333Y-83762192D01*
X85603734Y-83762152D01*
X85603733Y-83762152D01*
X85537881Y-83761807D01*
X85452921Y-83761362D01*
X85445541Y-83763134D01*
X85445539Y-83763134D01*
X85306263Y-83796571D01*
X85306260Y-83796572D01*
X85298884Y-83798343D01*
X85158114Y-83871000D01*
X85038739Y-83975138D01*
X84947650Y-84104744D01*
X84890106Y-84252337D01*
X84889114Y-84259870D01*
X84889114Y-84259871D01*
X84871083Y-84396834D01*
X84869429Y-84409396D01*
X84872199Y-84434484D01*
X84879178Y-84497705D01*
X84866772Y-84567609D01*
X84843035Y-84600626D01*
X84785067Y-84658595D01*
X84722755Y-84692620D01*
X84695971Y-84695500D01*
X82266864Y-84695500D01*
X82198743Y-84675498D01*
X82163025Y-84640868D01*
X82148857Y-84620253D01*
X82148853Y-84620248D01*
X82144553Y-84613992D01*
X82026275Y-84508611D01*
X82018889Y-84504700D01*
X81892988Y-84438039D01*
X81892989Y-84438039D01*
X81886274Y-84434484D01*
X81732633Y-84395892D01*
X81725034Y-84395852D01*
X81725033Y-84395852D01*
X81659181Y-84395507D01*
X81574221Y-84395062D01*
X81566841Y-84396834D01*
X81566839Y-84396834D01*
X81427563Y-84430271D01*
X81427560Y-84430272D01*
X81420184Y-84432043D01*
X81279414Y-84504700D01*
X81160039Y-84608838D01*
X81068950Y-84738444D01*
X81066190Y-84745524D01*
X81018632Y-84867504D01*
X81011406Y-84886037D01*
X81010414Y-84893570D01*
X81010414Y-84893571D01*
X80992030Y-85033216D01*
X80990729Y-85043096D01*
X81008113Y-85200553D01*
X81010723Y-85207684D01*
X81010723Y-85207686D01*
X81054143Y-85326336D01*
X81062553Y-85349319D01*
X81066789Y-85355622D01*
X81066789Y-85355623D01*
X81132925Y-85454043D01*
X81150908Y-85480805D01*
X81156527Y-85485918D01*
X81156528Y-85485919D01*
X81232096Y-85554680D01*
X81268076Y-85587419D01*
X81407293Y-85663008D01*
X81414635Y-85664934D01*
X81414637Y-85664935D01*
X81473362Y-85680341D01*
X81534178Y-85716975D01*
X81565533Y-85780672D01*
X81557474Y-85851210D01*
X81524218Y-85897166D01*
X81516565Y-85903842D01*
X81516561Y-85903846D01*
X81510839Y-85908838D01*
X81419750Y-86038444D01*
X81416990Y-86045524D01*
X81376751Y-86148732D01*
X81362206Y-86186037D01*
X81341529Y-86343096D01*
X81350221Y-86421825D01*
X81357735Y-86489881D01*
X81358913Y-86500553D01*
X81413353Y-86649319D01*
X81416478Y-86653970D01*
X81429424Y-86722914D01*
X81402721Y-86788698D01*
X81344692Y-86829602D01*
X81273761Y-86832640D01*
X81232145Y-86813802D01*
X81231946Y-86813664D01*
X81226275Y-86808611D01*
X81086274Y-86734484D01*
X80932633Y-86695892D01*
X80925034Y-86695852D01*
X80925033Y-86695852D01*
X80859181Y-86695507D01*
X80774221Y-86695062D01*
X80766841Y-86696834D01*
X80766839Y-86696834D01*
X80627563Y-86730271D01*
X80627560Y-86730272D01*
X80620184Y-86732043D01*
X80479414Y-86804700D01*
X80360039Y-86908838D01*
X80268950Y-87038444D01*
X80211406Y-87186037D01*
X80190729Y-87343096D01*
X80208113Y-87500553D01*
X80210723Y-87507684D01*
X80210723Y-87507686D01*
X80248460Y-87610807D01*
X80262553Y-87649319D01*
X80266789Y-87655622D01*
X80266790Y-87655625D01*
X80296356Y-87699623D01*
X80317749Y-87767320D01*
X80299145Y-87835836D01*
X80246453Y-87883418D01*
X80191775Y-87895900D01*
X78917429Y-87895900D01*
X78849308Y-87875898D01*
X78828334Y-87858995D01*
X76524018Y-85554680D01*
X76511513Y-85539198D01*
X76508577Y-85535971D01*
X76502925Y-85527218D01*
X76478662Y-85508091D01*
X76474667Y-85504541D01*
X76474583Y-85504640D01*
X76470620Y-85501282D01*
X76466944Y-85497606D01*
X76460169Y-85492764D01*
X76452448Y-85487246D01*
X76447705Y-85483685D01*
X76418425Y-85460603D01*
X76418421Y-85460601D01*
X76410243Y-85454154D01*
X76402175Y-85451321D01*
X76395215Y-85446347D01*
X76349514Y-85432680D01*
X76343865Y-85430844D01*
X76308328Y-85418364D01*
X76298892Y-85415050D01*
X76293696Y-85414600D01*
X76290991Y-85414600D01*
X76288735Y-85414503D01*
X76288259Y-85414360D01*
X76288261Y-85414314D01*
X76288062Y-85414301D01*
X76282145Y-85412532D01*
X76232511Y-85414482D01*
X76231976Y-85414503D01*
X76227030Y-85414600D01*
X72584257Y-85414600D01*
X72564463Y-85412494D01*
X72560110Y-85412289D01*
X72549930Y-85410097D01*
X72519260Y-85413727D01*
X72513917Y-85414042D01*
X72513928Y-85414172D01*
X72508748Y-85414600D01*
X72503549Y-85414600D01*
X72498425Y-85415453D01*
X72498412Y-85415454D01*
X72485959Y-85417527D01*
X72480084Y-85418364D01*
X72443071Y-85422745D01*
X72432730Y-85423969D01*
X72425022Y-85427670D01*
X72416583Y-85429075D01*
X72374599Y-85451729D01*
X72369336Y-85454410D01*
X72326342Y-85475055D01*
X72322350Y-85478411D01*
X72320403Y-85480358D01*
X72318778Y-85481848D01*
X72318346Y-85482081D01*
X72318313Y-85482045D01*
X72318155Y-85482184D01*
X72312720Y-85485117D01*
X72305651Y-85492764D01*
X72278643Y-85521981D01*
X72275214Y-85525547D01*
X70075580Y-87725182D01*
X70060098Y-87737687D01*
X70056871Y-87740623D01*
X70048118Y-87746275D01*
X70028991Y-87770538D01*
X70025441Y-87774533D01*
X70025540Y-87774617D01*
X70022182Y-87778580D01*
X70018506Y-87782256D01*
X70015483Y-87786485D01*
X70015483Y-87786486D01*
X70008146Y-87796752D01*
X70004585Y-87801495D01*
X69981503Y-87830775D01*
X69981501Y-87830779D01*
X69975054Y-87838957D01*
X69972221Y-87847025D01*
X69967247Y-87853985D01*
X69964263Y-87863963D01*
X69953580Y-87899686D01*
X69951744Y-87905335D01*
X69935950Y-87950308D01*
X69935500Y-87955504D01*
X69935500Y-87958209D01*
X69935403Y-87960465D01*
X69935260Y-87960941D01*
X69935214Y-87960939D01*
X69935201Y-87961138D01*
X69933432Y-87967055D01*
X69933841Y-87977459D01*
X69935403Y-88017224D01*
X69935500Y-88022170D01*
X69935500Y-88232271D01*
X69915498Y-88300392D01*
X69861842Y-88346885D01*
X69791568Y-88356989D01*
X69726988Y-88327495D01*
X69695305Y-88285521D01*
X69686814Y-88267311D01*
X69686811Y-88267306D01*
X69684488Y-88262324D01*
X69681331Y-88257815D01*
X69560136Y-88084730D01*
X69560134Y-88084727D01*
X69556977Y-88080219D01*
X69399781Y-87923023D01*
X69395273Y-87919866D01*
X69395270Y-87919864D01*
X69284303Y-87842164D01*
X69217677Y-87795512D01*
X69212695Y-87793189D01*
X69212690Y-87793186D01*
X69021185Y-87703886D01*
X69021181Y-87703885D01*
X69016196Y-87701560D01*
X69016068Y-87701526D01*
X68960235Y-87660417D01*
X68934896Y-87594095D01*
X68934500Y-87584109D01*
X68934500Y-83161107D01*
X68954502Y-83092986D01*
X69008158Y-83046493D01*
X69062478Y-83035123D01*
X69091318Y-83035576D01*
X69091321Y-83035576D01*
X69098916Y-83035695D01*
X69253332Y-83000329D01*
X69323742Y-82964917D01*
X69388072Y-82932563D01*
X69388075Y-82932561D01*
X69394855Y-82929151D01*
X69400626Y-82924222D01*
X69400629Y-82924220D01*
X69509536Y-82831204D01*
X69509536Y-82831203D01*
X69515314Y-82826269D01*
X69607755Y-82697624D01*
X69666842Y-82550641D01*
X69689162Y-82393807D01*
X69689307Y-82380000D01*
X69670276Y-82222733D01*
X69614280Y-82074546D01*
X69524553Y-81943992D01*
X69406275Y-81838611D01*
X69398889Y-81834700D01*
X69301688Y-81783235D01*
X69266274Y-81764484D01*
X69112633Y-81725892D01*
X69105034Y-81725852D01*
X69105033Y-81725852D01*
X69039358Y-81725508D01*
X68971343Y-81705150D01*
X68925132Y-81651251D01*
X68915396Y-81580925D01*
X68945227Y-81516500D01*
X68950923Y-81510415D01*
X69954933Y-80506405D01*
X70017245Y-80472379D01*
X70044028Y-80469500D01*
X85667497Y-80469500D01*
X85735618Y-80489502D01*
X85772078Y-80525224D01*
X85785908Y-80545805D01*
X85903076Y-80652419D01*
X86042293Y-80728008D01*
X86195522Y-80768207D01*
X86279477Y-80769526D01*
X86346319Y-80770576D01*
X86346322Y-80770576D01*
X86353916Y-80770695D01*
X86508332Y-80735329D01*
X86612183Y-80683098D01*
X86643072Y-80667563D01*
X86643075Y-80667561D01*
X86649855Y-80664151D01*
X86655626Y-80659222D01*
X86655629Y-80659220D01*
X86764536Y-80566204D01*
X86764536Y-80566203D01*
X86770314Y-80561269D01*
X86862755Y-80432624D01*
X86921842Y-80285641D01*
X86944162Y-80128807D01*
X86944307Y-80115000D01*
X86941695Y-80093411D01*
X86936202Y-80048022D01*
X86925276Y-79957733D01*
X86869280Y-79809546D01*
X86834270Y-79758606D01*
X86812170Y-79691137D01*
X86830056Y-79622430D01*
X86882247Y-79574299D01*
X86952175Y-79562026D01*
X87017637Y-79589508D01*
X87027205Y-79598144D01*
X87879562Y-80450501D01*
X87913588Y-80512813D01*
X87915389Y-80556041D01*
X87905929Y-80627896D01*
X87911227Y-80675880D01*
X87922316Y-80776322D01*
X87923313Y-80785353D01*
X87925923Y-80792484D01*
X87925923Y-80792486D01*
X87946706Y-80849277D01*
X87977753Y-80934119D01*
X88066108Y-81065605D01*
X88071727Y-81070718D01*
X88071728Y-81070719D01*
X88083103Y-81081069D01*
X88183276Y-81172219D01*
X88322493Y-81247808D01*
X88475722Y-81288007D01*
X88559677Y-81289326D01*
X88626519Y-81290376D01*
X88626522Y-81290376D01*
X88634116Y-81290495D01*
X88788532Y-81255129D01*
X88873780Y-81212254D01*
X88923272Y-81187363D01*
X88923275Y-81187361D01*
X88930055Y-81183951D01*
X88935826Y-81179022D01*
X88935829Y-81179020D01*
X89044736Y-81086004D01*
X89044736Y-81086003D01*
X89050514Y-81081069D01*
X89142955Y-80952424D01*
X89202042Y-80805441D01*
X89213578Y-80724385D01*
X89220481Y-80675880D01*
X90481476Y-80675880D01*
X90482716Y-80683096D01*
X90482716Y-80683098D01*
X90510031Y-80842062D01*
X90511271Y-80849277D01*
X90580156Y-81011168D01*
X90684437Y-81152871D01*
X90818520Y-81266782D01*
X90856311Y-81286079D01*
X90968695Y-81343466D01*
X90968700Y-81343468D01*
X90975212Y-81346793D01*
X90982318Y-81348532D01*
X90982321Y-81348533D01*
X91063710Y-81368448D01*
X91146108Y-81388611D01*
X91151710Y-81388959D01*
X91151713Y-81388959D01*
X91155275Y-81389180D01*
X91155284Y-81389180D01*
X91157214Y-81389300D01*
X113254053Y-81389300D01*
X113345950Y-81378586D01*
X113377482Y-81374910D01*
X113377484Y-81374910D01*
X113384754Y-81374062D01*
X113391631Y-81371566D01*
X113391634Y-81371565D01*
X113543255Y-81316529D01*
X113550134Y-81314032D01*
X113556251Y-81310022D01*
X113556254Y-81310020D01*
X113648204Y-81249734D01*
X113697268Y-81217566D01*
X113818264Y-81089840D01*
X113906632Y-80937704D01*
X113957630Y-80769320D01*
X113968524Y-80593720D01*
X113956755Y-80525224D01*
X113939969Y-80427538D01*
X113939968Y-80427536D01*
X113938729Y-80420323D01*
X113869844Y-80258432D01*
X113765563Y-80116729D01*
X113631480Y-80002818D01*
X113546804Y-79959580D01*
X113481305Y-79926134D01*
X113481300Y-79926132D01*
X113474788Y-79922807D01*
X113467682Y-79921068D01*
X113467679Y-79921067D01*
X113373553Y-79898035D01*
X113303892Y-79880989D01*
X113298290Y-79880641D01*
X113298287Y-79880641D01*
X113294725Y-79880420D01*
X113294716Y-79880420D01*
X113292786Y-79880300D01*
X91195947Y-79880300D01*
X91104050Y-79891014D01*
X91072518Y-79894690D01*
X91072516Y-79894690D01*
X91065246Y-79895538D01*
X91058369Y-79898034D01*
X91058366Y-79898035D01*
X90990121Y-79922807D01*
X90899866Y-79955568D01*
X90893749Y-79959578D01*
X90893746Y-79959580D01*
X90839832Y-79994928D01*
X90752732Y-80052034D01*
X90631736Y-80179760D01*
X90543368Y-80331896D01*
X90492370Y-80500280D01*
X90481476Y-80675880D01*
X89220481Y-80675880D01*
X89223781Y-80652691D01*
X89223781Y-80652688D01*
X89224362Y-80648607D01*
X89224507Y-80634800D01*
X89205476Y-80477533D01*
X89149480Y-80329346D01*
X89124291Y-80292695D01*
X89064055Y-80205051D01*
X89064054Y-80205049D01*
X89059753Y-80198792D01*
X88941475Y-80093411D01*
X88801474Y-80019284D01*
X88647833Y-79980692D01*
X88640234Y-79980652D01*
X88640233Y-79980652D01*
X88571625Y-79980293D01*
X88489421Y-79979862D01*
X88482035Y-79981635D01*
X88481000Y-79981755D01*
X88411032Y-79969715D01*
X88377424Y-79945685D01*
X86977318Y-78545580D01*
X86964813Y-78530098D01*
X86961877Y-78526871D01*
X86956225Y-78518118D01*
X86931962Y-78498991D01*
X86927967Y-78495441D01*
X86927883Y-78495540D01*
X86923920Y-78492182D01*
X86920244Y-78488506D01*
X86916014Y-78485483D01*
X86905748Y-78478146D01*
X86901005Y-78474585D01*
X86871725Y-78451503D01*
X86871721Y-78451501D01*
X86863543Y-78445054D01*
X86855475Y-78442221D01*
X86848515Y-78437247D01*
X86802814Y-78423580D01*
X86797165Y-78421744D01*
X86761628Y-78409264D01*
X86752192Y-78405950D01*
X86746996Y-78405500D01*
X86744291Y-78405500D01*
X86742035Y-78405403D01*
X86741559Y-78405260D01*
X86741561Y-78405214D01*
X86741362Y-78405201D01*
X86735445Y-78403432D01*
X86685811Y-78405382D01*
X86685276Y-78405403D01*
X86680330Y-78405500D01*
X69541253Y-78405500D01*
X69521483Y-78403396D01*
X69517115Y-78403190D01*
X69506930Y-78400997D01*
X69476260Y-78404627D01*
X69470917Y-78404942D01*
X69470928Y-78405072D01*
X69465748Y-78405500D01*
X69460549Y-78405500D01*
X69455425Y-78406353D01*
X69455412Y-78406354D01*
X69442959Y-78408427D01*
X69437084Y-78409264D01*
X69400071Y-78413645D01*
X69389730Y-78414869D01*
X69382022Y-78418570D01*
X69373583Y-78419975D01*
X69364413Y-78424923D01*
X69331619Y-78442618D01*
X69326328Y-78445314D01*
X69290489Y-78462523D01*
X69290482Y-78462527D01*
X69283342Y-78465956D01*
X69279350Y-78469312D01*
X69277403Y-78471259D01*
X69275781Y-78472747D01*
X69275345Y-78472982D01*
X69275313Y-78472946D01*
X69275158Y-78473083D01*
X69269720Y-78476017D01*
X69262650Y-78483665D01*
X69262649Y-78483666D01*
X69235631Y-78512894D01*
X69232202Y-78516460D01*
X66145580Y-81603082D01*
X66130098Y-81615587D01*
X66126871Y-81618523D01*
X66118118Y-81624175D01*
X66098991Y-81648438D01*
X66095441Y-81652433D01*
X66095540Y-81652517D01*
X66092182Y-81656480D01*
X66088506Y-81660156D01*
X66085483Y-81664385D01*
X66085483Y-81664386D01*
X66078146Y-81674652D01*
X66074585Y-81679395D01*
X66051503Y-81708675D01*
X66051501Y-81708679D01*
X66045054Y-81716857D01*
X66042221Y-81724925D01*
X66037247Y-81731885D01*
X66034263Y-81741863D01*
X66023580Y-81777586D01*
X66021744Y-81783235D01*
X66005950Y-81828208D01*
X66005500Y-81833404D01*
X66005500Y-81836109D01*
X66005403Y-81838365D01*
X66005260Y-81838841D01*
X66005214Y-81838839D01*
X66005201Y-81839038D01*
X66003432Y-81844955D01*
X66003841Y-81855359D01*
X66005403Y-81895124D01*
X66005500Y-81900070D01*
X66005500Y-96788743D01*
X66003394Y-96808537D01*
X66003189Y-96812890D01*
X66000997Y-96823070D01*
X66002221Y-96833408D01*
X66004627Y-96853737D01*
X66004942Y-96859083D01*
X66005072Y-96859072D01*
X66005500Y-96864252D01*
X66005500Y-96869451D01*
X66006353Y-96874575D01*
X66006354Y-96874588D01*
X66008427Y-96887041D01*
X66009264Y-96892916D01*
X66014869Y-96940270D01*
X66018570Y-96947978D01*
X66019975Y-96956417D01*
X66042629Y-96998401D01*
X66045310Y-97003664D01*
X66065955Y-97046658D01*
X66069311Y-97050650D01*
X66071258Y-97052597D01*
X66072748Y-97054222D01*
X66072981Y-97054654D01*
X66072945Y-97054687D01*
X66073084Y-97054845D01*
X66076017Y-97060280D01*
X66083664Y-97067349D01*
X66112881Y-97094357D01*
X66116447Y-97097786D01*
X66786553Y-97767891D01*
X67402146Y-98383484D01*
X67436171Y-98445796D01*
X67431107Y-98516611D01*
X67427246Y-98525828D01*
X67383885Y-98618817D01*
X67381560Y-98623804D01*
X67380138Y-98629112D01*
X67380137Y-98629114D01*
X67366475Y-98680102D01*
X67324022Y-98838537D01*
X67304647Y-99060000D01*
X67324022Y-99281463D01*
X67381560Y-99496196D01*
X67383882Y-99501177D01*
X67383883Y-99501178D01*
X67473186Y-99692689D01*
X67473189Y-99692694D01*
X67475512Y-99697676D01*
X67478668Y-99702183D01*
X67478669Y-99702185D01*
X67592941Y-99865382D01*
X67603023Y-99879781D01*
X67760219Y-100036977D01*
X67764727Y-100040134D01*
X67764730Y-100040136D01*
X67840495Y-100093187D01*
X67942323Y-100164488D01*
X67947305Y-100166811D01*
X67947310Y-100166814D01*
X68063318Y-100220909D01*
X68143804Y-100258440D01*
X68149112Y-100259862D01*
X68149114Y-100259863D01*
X68169872Y-100265425D01*
X68358537Y-100315978D01*
X68580000Y-100335353D01*
X68801463Y-100315978D01*
X68990128Y-100265425D01*
X69010886Y-100259863D01*
X69010888Y-100259862D01*
X69016196Y-100258440D01*
X69096682Y-100220909D01*
X69212690Y-100166814D01*
X69212695Y-100166811D01*
X69217677Y-100164488D01*
X69319505Y-100093187D01*
X69395270Y-100040136D01*
X69395273Y-100040134D01*
X69399781Y-100036977D01*
X69556977Y-99879781D01*
X69567060Y-99865382D01*
X69681331Y-99702185D01*
X69681332Y-99702183D01*
X69684488Y-99697676D01*
X69686811Y-99692694D01*
X69686814Y-99692689D01*
X69695305Y-99674479D01*
X69742223Y-99621194D01*
X69810500Y-99601733D01*
X69878460Y-99622275D01*
X69924525Y-99676298D01*
X69935500Y-99727729D01*
X69935500Y-104820971D01*
X69915498Y-104889092D01*
X69898595Y-104910066D01*
X67835580Y-106973082D01*
X67820098Y-106985587D01*
X67816871Y-106988523D01*
X67808118Y-106994175D01*
X67788991Y-107018438D01*
X67785441Y-107022433D01*
X67785540Y-107022517D01*
X67782182Y-107026480D01*
X67778506Y-107030156D01*
X67775483Y-107034385D01*
X67775483Y-107034386D01*
X67768146Y-107044652D01*
X67764585Y-107049395D01*
X67741503Y-107078675D01*
X67741501Y-107078679D01*
X67735054Y-107086857D01*
X67732221Y-107094925D01*
X67727247Y-107101885D01*
X67724263Y-107111863D01*
X67713580Y-107147586D01*
X67711744Y-107153235D01*
X67695950Y-107198208D01*
X67695500Y-107203404D01*
X67695500Y-107206109D01*
X67695403Y-107208365D01*
X67695260Y-107208841D01*
X67695214Y-107208839D01*
X67695201Y-107209038D01*
X67693432Y-107214955D01*
X67694747Y-107248432D01*
X67695403Y-107265124D01*
X67695500Y-107270070D01*
X67695500Y-118933378D01*
X67675498Y-119001499D01*
X67652330Y-119028327D01*
X67560039Y-119108838D01*
X67468950Y-119238444D01*
X67450474Y-119285832D01*
X67415043Y-119376709D01*
X67411406Y-119386037D01*
X67410414Y-119393570D01*
X67410414Y-119393571D01*
X67393331Y-119523334D01*
X67390729Y-119543096D01*
X67394374Y-119576110D01*
X67405259Y-119674700D01*
X67408113Y-119700553D01*
X67410723Y-119707684D01*
X67410723Y-119707686D01*
X67457405Y-119835250D01*
X67462553Y-119849319D01*
X67466789Y-119855622D01*
X67466789Y-119855623D01*
X67500028Y-119905087D01*
X67550908Y-119980805D01*
X67668076Y-120087419D01*
X67807293Y-120163008D01*
X67960522Y-120203207D01*
X68044477Y-120204526D01*
X68111319Y-120205576D01*
X68111322Y-120205576D01*
X68118916Y-120205695D01*
X68241371Y-120177649D01*
X68312237Y-120181938D01*
X68369535Y-120223860D01*
X68395073Y-120290105D01*
X68395500Y-120300469D01*
X68395500Y-121830223D01*
X68375498Y-121898344D01*
X68327291Y-121942188D01*
X68300373Y-121956082D01*
X68285614Y-121963700D01*
X68166239Y-122067838D01*
X68075150Y-122197444D01*
X68070002Y-122210649D01*
X68023740Y-122329305D01*
X68017606Y-122345037D01*
X68016614Y-122352570D01*
X68016614Y-122352571D01*
X68011101Y-122394451D01*
X67996929Y-122502096D01*
X68014313Y-122659553D01*
X68016923Y-122666685D01*
X68018658Y-122674082D01*
X68016954Y-122674482D01*
X68020971Y-122735936D01*
X67986566Y-122798039D01*
X67924047Y-122831682D01*
X67898017Y-122834400D01*
X67664836Y-122834400D01*
X67596715Y-122814398D01*
X67550222Y-122760742D01*
X67540118Y-122690468D01*
X67541606Y-122683212D01*
X67543042Y-122679641D01*
X67546976Y-122652003D01*
X67564781Y-122526891D01*
X67564781Y-122526888D01*
X67565362Y-122522807D01*
X67565507Y-122509000D01*
X67546476Y-122351733D01*
X67490480Y-122203546D01*
X67400753Y-122072992D01*
X67394512Y-122067431D01*
X67361783Y-122038271D01*
X67282475Y-121967611D01*
X67275089Y-121963700D01*
X67209818Y-121929141D01*
X67142474Y-121893484D01*
X66988833Y-121854892D01*
X66981234Y-121854852D01*
X66981233Y-121854852D01*
X66915381Y-121854507D01*
X66830421Y-121854062D01*
X66823041Y-121855834D01*
X66823039Y-121855834D01*
X66683763Y-121889271D01*
X66683760Y-121889272D01*
X66676384Y-121891043D01*
X66535614Y-121963700D01*
X66416239Y-122067838D01*
X66325150Y-122197444D01*
X66320002Y-122210649D01*
X66273740Y-122329305D01*
X66267606Y-122345037D01*
X66266614Y-122352570D01*
X66266614Y-122352571D01*
X66261101Y-122394451D01*
X66246929Y-122502096D01*
X66264313Y-122659553D01*
X66266923Y-122666685D01*
X66268658Y-122674082D01*
X66266954Y-122674482D01*
X66270971Y-122735936D01*
X66236566Y-122798039D01*
X66174047Y-122831682D01*
X66148017Y-122834400D01*
X65986720Y-122834400D01*
X65918599Y-122814398D01*
X65872106Y-122760742D01*
X65860720Y-122708400D01*
X65860720Y-121439476D01*
X65863141Y-121414894D01*
X65863285Y-121414170D01*
X65865706Y-121402000D01*
X65859996Y-121373291D01*
X65857503Y-121360757D01*
X65848375Y-121314868D01*
X65848374Y-121314866D01*
X65845954Y-121302699D01*
X65789704Y-121218516D01*
X65705521Y-121162266D01*
X65694003Y-121159975D01*
X65631287Y-121147500D01*
X65624490Y-121146148D01*
X65618392Y-121144935D01*
X65606220Y-121142514D01*
X65593323Y-121145079D01*
X65568744Y-121147500D01*
X65286720Y-121147500D01*
X65218599Y-121127498D01*
X65172106Y-121073842D01*
X65160720Y-121021500D01*
X65160720Y-77708800D01*
X67642334Y-77708800D01*
X67647320Y-77733867D01*
X67662086Y-77808101D01*
X67718336Y-77892284D01*
X67802519Y-77948534D01*
X67901820Y-77968286D01*
X67914717Y-77965721D01*
X67939296Y-77963300D01*
X74087344Y-77963300D01*
X74111923Y-77965721D01*
X74124820Y-77968286D01*
X74224121Y-77948534D01*
X74308304Y-77892284D01*
X74364554Y-77808101D01*
X74379320Y-77733867D01*
X74384306Y-77708800D01*
X74381741Y-77695903D01*
X74379320Y-77671324D01*
X74379320Y-75639516D01*
X74381741Y-75614934D01*
X74381885Y-75614210D01*
X74384306Y-75602040D01*
X74364554Y-75502739D01*
X74308304Y-75418556D01*
X74224121Y-75362306D01*
X74149887Y-75347540D01*
X74136992Y-75344975D01*
X74124820Y-75342554D01*
X74111923Y-75345119D01*
X74087344Y-75347540D01*
X67939296Y-75347540D01*
X67914717Y-75345119D01*
X67901820Y-75342554D01*
X67889648Y-75344975D01*
X67876753Y-75347540D01*
X67802519Y-75362306D01*
X67718336Y-75418556D01*
X67662086Y-75502739D01*
X67642334Y-75602040D01*
X67644755Y-75614210D01*
X67644899Y-75614934D01*
X67647320Y-75639516D01*
X67647320Y-77671324D01*
X67644899Y-77695903D01*
X67642334Y-77708800D01*
X65160720Y-77708800D01*
X65160720Y-73703944D01*
X83990183Y-73703944D01*
X83992395Y-73750000D01*
X84002694Y-73964419D01*
X84053569Y-74220185D01*
X84141690Y-74465621D01*
X84265120Y-74695336D01*
X84267915Y-74699079D01*
X84267917Y-74699082D01*
X84418357Y-74900545D01*
X84418362Y-74900551D01*
X84421149Y-74904283D01*
X84424458Y-74907563D01*
X84424463Y-74907569D01*
X84525701Y-75007927D01*
X84606348Y-75087873D01*
X84610110Y-75090631D01*
X84610113Y-75090634D01*
X84726346Y-75175860D01*
X84816649Y-75242073D01*
X84820780Y-75244247D01*
X84820781Y-75244247D01*
X85043298Y-75361319D01*
X85043304Y-75361321D01*
X85047433Y-75363494D01*
X85293629Y-75449469D01*
X85298222Y-75450341D01*
X85545239Y-75497239D01*
X85545242Y-75497239D01*
X85549828Y-75498110D01*
X85673725Y-75502978D01*
X85805735Y-75508165D01*
X85805740Y-75508165D01*
X85810403Y-75508348D01*
X85903885Y-75498110D01*
X86064976Y-75480468D01*
X86064981Y-75480467D01*
X86069629Y-75479958D01*
X86321811Y-75413564D01*
X86475487Y-75347540D01*
X86557107Y-75312474D01*
X86557110Y-75312472D01*
X86561410Y-75310625D01*
X86565390Y-75308162D01*
X86565394Y-75308160D01*
X86779188Y-75175860D01*
X86779192Y-75175857D01*
X86783161Y-75173401D01*
X86982194Y-75004907D01*
X87154135Y-74808845D01*
X87295208Y-74589523D01*
X87402314Y-74351757D01*
X87473099Y-74100772D01*
X87490209Y-73966279D01*
X87505611Y-73845212D01*
X87505611Y-73845206D01*
X87506009Y-73842081D01*
X87508420Y-73750000D01*
X87504652Y-73699290D01*
X87489440Y-73494593D01*
X87489439Y-73494589D01*
X87489094Y-73489941D01*
X87431542Y-73235595D01*
X87337027Y-72992550D01*
X87207625Y-72766145D01*
X87046180Y-72561353D01*
X86856239Y-72382674D01*
X86641973Y-72234032D01*
X86637783Y-72231966D01*
X86637780Y-72231964D01*
X86412278Y-72120759D01*
X86412275Y-72120758D01*
X86408090Y-72118694D01*
X86159728Y-72039193D01*
X86155121Y-72038443D01*
X86155118Y-72038442D01*
X85906955Y-71998026D01*
X85906956Y-71998026D01*
X85902344Y-71997275D01*
X85775875Y-71995620D01*
X85646267Y-71993923D01*
X85646264Y-71993923D01*
X85641590Y-71993862D01*
X85383196Y-72029028D01*
X85378710Y-72030336D01*
X85378708Y-72030336D01*
X85348321Y-72039193D01*
X85132838Y-72102000D01*
X84896016Y-72211177D01*
X84892111Y-72213737D01*
X84892106Y-72213740D01*
X84681846Y-72351592D01*
X84681841Y-72351596D01*
X84677933Y-72354158D01*
X84580656Y-72440981D01*
X84488289Y-72523422D01*
X84483379Y-72527804D01*
X84316629Y-72728300D01*
X84181345Y-72951240D01*
X84080500Y-73191728D01*
X84016310Y-73444480D01*
X83990183Y-73703944D01*
X65160720Y-73703944D01*
X65160720Y-70182500D01*
X65180722Y-70114379D01*
X65234378Y-70067886D01*
X65286720Y-70056500D01*
X111475720Y-70056500D01*
X111543841Y-70076502D01*
G37*
G04 #@! TD.AperFunction*
G04 #@! TA.AperFunction,Conductor*
G36*
X101019092Y-108724502D02*
G01*
X101040066Y-108741405D01*
X102058595Y-109759934D01*
X102092621Y-109822246D01*
X102095500Y-109849029D01*
X102095500Y-114337185D01*
X102075498Y-114405306D01*
X102021842Y-114451799D01*
X101951568Y-114461903D01*
X101883971Y-114429709D01*
X101847119Y-114395643D01*
X101843553Y-114392214D01*
X100836918Y-113385580D01*
X100824413Y-113370098D01*
X100821477Y-113366871D01*
X100815825Y-113358118D01*
X100791562Y-113338991D01*
X100787567Y-113335441D01*
X100787483Y-113335540D01*
X100783520Y-113332182D01*
X100779844Y-113328506D01*
X100769292Y-113320965D01*
X100765348Y-113318146D01*
X100760605Y-113314585D01*
X100731325Y-113291503D01*
X100731321Y-113291501D01*
X100723143Y-113285054D01*
X100715075Y-113282221D01*
X100708115Y-113277247D01*
X100662414Y-113263580D01*
X100656765Y-113261744D01*
X100621228Y-113249264D01*
X100611792Y-113245950D01*
X100606596Y-113245500D01*
X100603891Y-113245500D01*
X100601635Y-113245403D01*
X100601159Y-113245260D01*
X100601161Y-113245214D01*
X100600962Y-113245201D01*
X100595045Y-113243432D01*
X100545411Y-113245382D01*
X100544876Y-113245403D01*
X100539930Y-113245500D01*
X97919886Y-113245500D01*
X97900092Y-113243394D01*
X97895739Y-113243189D01*
X97885559Y-113240997D01*
X97854889Y-113244627D01*
X97849546Y-113244942D01*
X97849557Y-113245072D01*
X97844377Y-113245500D01*
X97839178Y-113245500D01*
X97834054Y-113246353D01*
X97834041Y-113246354D01*
X97821588Y-113248427D01*
X97815713Y-113249264D01*
X97778700Y-113253645D01*
X97768359Y-113254869D01*
X97760651Y-113258570D01*
X97752212Y-113259975D01*
X97743042Y-113264923D01*
X97710248Y-113282618D01*
X97704957Y-113285314D01*
X97669119Y-113302523D01*
X97669115Y-113302525D01*
X97661971Y-113305956D01*
X97657979Y-113309311D01*
X97656052Y-113311238D01*
X97654403Y-113312750D01*
X97653968Y-113312985D01*
X97653936Y-113312950D01*
X97653783Y-113313085D01*
X97648349Y-113316017D01*
X97641280Y-113323664D01*
X97614272Y-113352881D01*
X97610843Y-113356447D01*
X95522334Y-115444957D01*
X93458696Y-117508595D01*
X93396384Y-117542621D01*
X93369601Y-117545500D01*
X93334153Y-117545500D01*
X93266032Y-117525498D01*
X93219539Y-117471842D01*
X93209435Y-117401568D01*
X93243364Y-117332131D01*
X93387133Y-117182733D01*
X93500551Y-117064875D01*
X93744643Y-116753573D01*
X93764203Y-116722633D01*
X93906233Y-116497962D01*
X93956026Y-116419197D01*
X94132537Y-116065172D01*
X94272367Y-115695121D01*
X94283578Y-115652989D01*
X94373265Y-115315919D01*
X94374086Y-115312834D01*
X94376863Y-115295500D01*
X94422193Y-115012489D01*
X94436651Y-114922225D01*
X94436905Y-114917831D01*
X94450165Y-114687846D01*
X94459423Y-114527293D01*
X94459436Y-114523705D01*
X94459512Y-114501697D01*
X94459518Y-114500000D01*
X94459242Y-114494537D01*
X94439665Y-114108092D01*
X94439664Y-114108087D01*
X94439504Y-114104919D01*
X94388387Y-113770866D01*
X94380151Y-113717042D01*
X94380149Y-113717033D01*
X94379667Y-113713882D01*
X94331879Y-113529098D01*
X94281417Y-113333975D01*
X94281414Y-113333967D01*
X94280620Y-113330895D01*
X94276947Y-113320965D01*
X94144485Y-112962874D01*
X94144482Y-112962868D01*
X94143376Y-112959877D01*
X93969341Y-112604628D01*
X93760298Y-112268785D01*
X93675449Y-112159003D01*
X93520337Y-111958311D01*
X93520332Y-111958306D01*
X93518385Y-111955786D01*
X93435275Y-111868206D01*
X93248279Y-111671154D01*
X93248276Y-111671152D01*
X93246080Y-111668837D01*
X93120903Y-111561168D01*
X92948586Y-111412952D01*
X92948583Y-111412950D01*
X92946171Y-111410875D01*
X92621729Y-111184541D01*
X92276075Y-110992152D01*
X92276398Y-110991571D01*
X92226266Y-110945529D01*
X92208242Y-110876858D01*
X92230204Y-110809344D01*
X92285181Y-110764421D01*
X92334189Y-110754500D01*
X94950971Y-110754500D01*
X95019092Y-110774502D01*
X95040066Y-110791405D01*
X96263082Y-112014420D01*
X96275587Y-112029902D01*
X96278523Y-112033129D01*
X96284175Y-112041882D01*
X96308438Y-112061009D01*
X96312433Y-112064559D01*
X96312517Y-112064460D01*
X96316480Y-112067818D01*
X96320156Y-112071494D01*
X96324385Y-112074517D01*
X96324386Y-112074517D01*
X96334652Y-112081854D01*
X96339395Y-112085415D01*
X96368675Y-112108497D01*
X96368679Y-112108499D01*
X96376857Y-112114946D01*
X96384925Y-112117779D01*
X96391885Y-112122753D01*
X96401863Y-112125737D01*
X96437586Y-112136420D01*
X96443235Y-112138256D01*
X96488208Y-112154050D01*
X96493404Y-112154500D01*
X96496109Y-112154500D01*
X96498365Y-112154597D01*
X96498841Y-112154740D01*
X96498839Y-112154786D01*
X96499038Y-112154799D01*
X96504955Y-112156568D01*
X96555124Y-112154597D01*
X96560070Y-112154500D01*
X99698743Y-112154500D01*
X99718537Y-112156606D01*
X99722890Y-112156811D01*
X99733070Y-112159003D01*
X99763740Y-112155373D01*
X99769083Y-112155058D01*
X99769072Y-112154928D01*
X99774252Y-112154500D01*
X99779451Y-112154500D01*
X99784575Y-112153647D01*
X99784588Y-112153646D01*
X99797041Y-112151573D01*
X99802916Y-112150736D01*
X99839929Y-112146355D01*
X99850270Y-112145131D01*
X99857978Y-112141430D01*
X99866417Y-112140025D01*
X99908401Y-112117371D01*
X99913664Y-112114690D01*
X99926561Y-112108497D01*
X99956658Y-112094045D01*
X99960650Y-112090689D01*
X99962597Y-112088742D01*
X99964222Y-112087252D01*
X99964654Y-112087019D01*
X99964687Y-112087055D01*
X99964845Y-112086916D01*
X99970280Y-112083983D01*
X99988236Y-112064559D01*
X100004357Y-112047119D01*
X100007786Y-112043553D01*
X100464423Y-111586916D01*
X100479909Y-111574408D01*
X100483134Y-111571474D01*
X100491882Y-111565825D01*
X100511003Y-111541570D01*
X100514561Y-111537567D01*
X100514461Y-111537482D01*
X100517814Y-111533525D01*
X100521495Y-111529844D01*
X100531864Y-111515335D01*
X100535426Y-111510591D01*
X100558497Y-111481325D01*
X100558499Y-111481321D01*
X100564946Y-111473143D01*
X100567779Y-111465075D01*
X100572753Y-111458115D01*
X100576526Y-111445500D01*
X100586420Y-111412414D01*
X100588256Y-111406765D01*
X100600444Y-111372060D01*
X100604050Y-111361792D01*
X100604500Y-111356596D01*
X100604500Y-111353891D01*
X100604597Y-111351635D01*
X100604740Y-111351159D01*
X100604786Y-111351161D01*
X100604799Y-111350962D01*
X100606568Y-111345045D01*
X100604597Y-111294876D01*
X100604500Y-111289930D01*
X100604500Y-110066082D01*
X100624502Y-109997961D01*
X100648669Y-109970271D01*
X100657438Y-109962782D01*
X100725443Y-109904700D01*
X100729536Y-109901204D01*
X100729536Y-109901203D01*
X100735314Y-109896269D01*
X100827755Y-109767624D01*
X100886842Y-109620641D01*
X100909162Y-109463807D01*
X100909307Y-109450000D01*
X100905960Y-109422337D01*
X100903464Y-109401714D01*
X100890276Y-109292733D01*
X100834280Y-109144546D01*
X100793297Y-109084915D01*
X100748855Y-109020251D01*
X100748854Y-109020249D01*
X100744553Y-109013992D01*
X100644195Y-108924577D01*
X100606640Y-108864327D01*
X100607619Y-108793337D01*
X100646823Y-108734146D01*
X100711805Y-108705547D01*
X100728014Y-108704500D01*
X100950971Y-108704500D01*
X101019092Y-108724502D01*
G37*
G04 #@! TD.AperFunction*
M02*
